<svg xmlns="http://www.w3.org/2000/svg" viewBox="0 0 89.39 114.56"><defs><style>.cls-1{fill:#1460be;}</style></defs><g id="Camada_2" data-name="Camada 2"><g id="Camada_1-2" data-name="Camada 1"><path class="cls-1" d="M50,88.46A32.87,32.87,0,0,0,48.64,92a56.33,56.33,0,0,0-2.35,17.25v5.14c1.29-.5,3.54-1.41,6.49-2.78h0v-2.46a49.59,49.59,0,0,1,2-15.14l.27-.79c-.76-.67-1.54-1.38-2.33-2.11S51,89.39,50,88.46Z"/><path class="cls-1" d="M32.36,80.18a15.19,15.19,0,0,0-7.5-2.81A21.57,21.57,0,0,0,16,78.55,22.27,22.27,0,0,0,1.38,93.62c-.24.78-.45,1.55-.61,2.3A31.37,31.37,0,0,0,0,102.41a28.27,28.27,0,0,0,6.24.72h.25c5,0,9.88-1.58,15-4.66a65.17,65.17,0,0,0,8.43-6.17A10.47,10.47,0,0,0,26.74,88a5.4,5.4,0,0,0-1-.6,57.4,57.4,0,0,1-7.54,5.53A23.49,23.49,0,0,1,7.28,96.6c.09-.34.18-.69.29-1A15.82,15.82,0,0,1,18,84.71c4.39-1.46,7.84-1.22,10.55.73,2.26,1.63,4,4.47,5.29,8.44a51.66,51.66,0,0,1,2,15.34v2.59c3.16,1.46,5.44,2.36,6.49,2.75v-5.34a58.06,58.06,0,0,0-2.27-17.3C38.37,86.6,35.79,82.64,32.36,80.18Z"/><path class="cls-1" d="M88.61,95.85c-.16-.72-.36-1.47-.6-2.23A22.25,22.25,0,0,0,73.42,78.55a22.85,22.85,0,0,0-7.17-1.25,16,16,0,0,0-2.2.08A15.71,15.71,0,0,0,58.53,79c1.91,1.87,3.68,3.53,5.35,5l.33,0a.12.12,0,0,0,.05,0,11.55,11.55,0,0,1,1.59-.17,16.36,16.36,0,0,1,5.15.92A15.79,15.79,0,0,1,81.39,95.38c.13.41.25.82.35,1.22-5.86-.38-12.38-4-20.34-11-.57-.53-1.09-1-1.53-1.4s-.64-.54-.95-.8l-8.54-7.14c-3.85-4.13-5.22-5.42-6.71-8.68a26.08,26.08,0,0,1-2.61-9.49h9.47V51.54h-10a15.09,15.09,0,0,1,.23-3.24h9.74V41.73H44.16a13.77,13.77,0,0,1,10.06-4V31.2a20.17,20.17,0,0,0-16.15,7.55,18.08,18.08,0,0,0-1.9,3H29.36V48.3h4.79A21.72,21.72,0,0,0,34,51.54H29.36V58.1h5.29a25.91,25.91,0,0,0,3.57,13.15c2.34,4.15,3.41,5.11,8.32,10.35l9.89,8.61h0a70.16,70.16,0,0,0,11.28,8.53,28.8,28.8,0,0,0,14.8,4.39h.39a27.8,27.8,0,0,0,6.49-.79A31.37,31.37,0,0,0,88.61,95.85Z"/><path class="cls-1" d="M10.68,76.36l.58-.08.06,0a11.13,11.13,0,0,1,6.15-2.56l.27,0v-.27c0-7.51.19-21.95.51-23.87A35.17,35.17,0,0,1,36.46,24.3c2.09.1,4.43,0,6.69-.13a52.4,52.4,0,0,1,8.6,0c1.41.17,5.38,3.11,6.72,4.25C68,36.54,72.27,55.05,71,73.56l0,.32h.63a10.44,10.44,0,0,1,5.87,1.79l.43.29,0-.52c.83-16.63-1.31-34.21-6.37-42.4a41.21,41.21,0,0,0-14.2-13.89l5.52-15V4a3.56,3.56,0,0,0-2.73-4h0L28.05.16,28,.18a3.53,3.53,0,0,0-2.15,4.05l5.48,14.9A42.27,42.27,0,0,0,11.65,46.61c-.8,3.85-1,25.51-1,29.42ZM54.26,7l-4,10.18-12.16,0L34.45,7Z"/></g></g></svg>