<svg xmlns="http://www.w3.org/2000/svg" viewBox="0 0 94.94 107.84"><defs><style>.cls-1{fill:#007cc4;}.cls-2{fill:#fff;}</style></defs><g id="Camada_2" data-name="Camada 2"><g id="Layer_1" data-name="Layer 1"><path class="cls-1" d="M47.47,100.17v4.45c-.64-.25-3.34-1.47-5.28-2.37-.87-.41-1.86-.88-2.93-1.43-2.52-1.29-5-2.72-7.41-4.26a84.46,84.46,0,0,1-8.51-6.21,75.55,75.55,0,0,1-6.56-6.15A64.3,64.3,0,0,1,7.32,71.4,57.61,57.61,0,0,1,2,58.35,60.26,60.26,0,0,1,0,42.78V8.26l1.19-.52a68.48,68.48,0,0,1,9.16-3.22,107,107,0,0,1,11-2.43c4-.68,8.17-1.2,12.49-1.55S42.87,0,47.47,0,56.66.18,61.1.54s8.52.87,12.49,1.55a105.82,105.82,0,0,1,11,2.43,70,70,0,0,1,9.16,3.21l1.19.53V42.78a59.42,59.42,0,0,1-2,15.57,57.16,57.16,0,0,1-5.37,13.06A67.6,67.6,0,0,1,71.36,90.35a85.61,85.61,0,0,1-8.59,6.21c-2.42,1.54-4.94,3-7.49,4.26-1,.49-1.85.92-2.65,1.29-1.82.84-4.37,2.2-5.16,2.51v-4.45"/><path class="cls-2" d="M76.29,46.62,76,46.36a19.26,19.26,0,0,0-4.15-2.47,16.42,16.42,0,0,0-5.62-1.33,17.79,17.79,0,0,0-8.76,1.89,25.58,25.58,0,0,0-2.92,1.67,19.65,19.65,0,0,0,3.94,1.62A14.75,14.75,0,0,1,66,46a13.73,13.73,0,0,1,7,2.46,23.11,23.11,0,0,1-9.3,1.75,21.33,21.33,0,0,1-12.52-4.23,29.22,29.22,0,0,1-2.42,2.43,25.21,25.21,0,0,0,3.72,2.38,24.75,24.75,0,0,0,5.58,2.11,25.91,25.91,0,0,0,5.57.72h.51a26.55,26.55,0,0,0,10.24-2c.51-.22,1-.45,1.48-.69a19.36,19.36,0,0,0,3-1.82A21.55,21.55,0,0,0,76.29,46.62Z"/><path class="cls-2" d="M44.23,34.14a9.35,9.35,0,0,0,2.34-2.95,11,11,0,0,1,.9-10.09,10.95,10.95,0,0,1-2.89,14.84c.68.86,1.35,1.78,2,2.75a15.43,15.43,0,0,0,1.81-1.53A14.35,14.35,0,0,0,49.8,18.5,14.08,14.08,0,0,0,47.47,16a14.24,14.24,0,0,0-3.31,4,14.36,14.36,0,0,0-1.35,3.33A14.6,14.6,0,0,0,42.34,27a14.42,14.42,0,0,0,1.12,5.59A13.82,13.82,0,0,0,44.23,34.14Z"/><path class="cls-2" d="M25,32.6a14.38,14.38,0,0,0,3.07,4.56,14.43,14.43,0,0,0,12.11,4.07,36.19,36.19,0,0,0-2.7-3.3,11,11,0,0,1-9.49-7,10.43,10.43,0,0,1,1.89.25c4.24,1,8.57,4.55,12.52,10.38.5.74,1,1.44,1.56,2.12a23.15,23.15,0,0,0,2.42-2.43c-.39-.5-.78-1-1.16-1.6A34.78,34.78,0,0,0,37.33,31a17.74,17.74,0,0,0-7-3.24,13,13,0,0,0-3-.27,11.77,11.77,0,0,0-2,.21,11,11,0,0,0-1.38.38,13.5,13.5,0,0,0,.38,2.36A12.78,12.78,0,0,0,25,32.6Z"/><path class="cls-2" d="M56.72,36.32A17.48,17.48,0,0,1,65,31.16a10.43,10.43,0,0,1,1.89-.25,11,11,0,0,1-15.77,5.55,17.38,17.38,0,0,1-1.59,1.86c-.25.24-.49.47-.75.69a14,14,0,0,0,2.29,1.22,14.37,14.37,0,0,0,11.17,0,14.4,14.4,0,0,0,7.64-7.63,13.49,13.49,0,0,0,.7-2.12A13.74,13.74,0,0,0,71,28.1a9.93,9.93,0,0,0-1.38-.38,11.78,11.78,0,0,0-2-.21,13,13,0,0,0-3,.27,17.81,17.81,0,0,0-7,3.24,30.23,30.23,0,0,0-4.76,4.47,9.13,9.13,0,0,0,3.84.83Z"/><path class="cls-2" d="M48.78,40.91a24.6,24.6,0,0,1-5.41,5.32c.87.69,1.76,1.45,2.64,2.27a28.92,28.92,0,0,0,6-6.2c-.51-.16-1-.35-1.52-.56A14.56,14.56,0,0,1,48.78,40.91Z"/><path class="cls-2" d="M31.32,53.57a25.91,25.91,0,0,0,5.57-.72,26.69,26.69,0,0,0,2.92-.91,23.55,23.55,0,0,0-3.52-2.44,22.6,22.6,0,0,1-5,.66,22.85,22.85,0,0,1-9.32-1.76,13.71,13.71,0,0,1,7-2.44c4.89-.26,10,2.31,15.11,7.66.72-.77,1.47-1.58,2.26-2.45l0-.06a40.75,40.75,0,0,0-4-3.61,27.12,27.12,0,0,0-4.84-3,17.79,17.79,0,0,0-8.76-1.89,16.42,16.42,0,0,0-5.62,1.33A19,19,0,0,0,19,46.36l-.33.25A20,20,0,0,0,16.12,49a20.19,20.19,0,0,0,2.95,1.82c.48.25,1,.48,1.5.7a26.55,26.55,0,0,0,10.24,2Z"/><path class="cls-2" d="M70.14,65.4a11.68,11.68,0,0,0-7.65-7.9,11.43,11.43,0,0,0-4.72-.62,8.33,8.33,0,0,0-2.89.84c1,1,1.93,1.85,2.8,2.62a7.35,7.35,0,0,1,3.73.39,8.24,8.24,0,0,1,5.45,5.59c.07.22.14.44.19.66-4.38-.18-8.82-3.29-16.15-11-.82.9-1.59,1.73-2.32,2.51,1.63,1.7,3.07,3.13,4.38,4.35a39.49,39.49,0,0,0,6.73,5.22,15.12,15.12,0,0,0,7.76,2.3h0A15.11,15.11,0,0,0,70.87,70a16.45,16.45,0,0,0-.41-3.41C70.37,66.19,70.27,65.8,70.14,65.4Z"/><path class="cls-2" d="M87.92,15.07v29.4a50.57,50.57,0,0,1-1.74,13.27,48.42,48.42,0,0,1-4.57,11.13A57.76,57.76,0,0,1,67.83,85a75.14,75.14,0,0,1-7.32,5.29c-2.07,1.31-4.21,2.53-6.38,3.63-.82.41-1.58.78-2.27,1.1-1.55.71-2.73,1.19-3.4,1.45V73.58a29.4,29.4,0,0,1,1.23-9,15.31,15.31,0,0,1,.72-1.84c.49.48,1,.94,1.44,1.37s.82.75,1.22,1.11c0,.13-.1.27-.14.41a26.05,26.05,0,0,0-1.07,8V91.25l.82-.41a71.38,71.38,0,0,0,13.07-8.53C78.2,72,84.51,59.29,84.51,44.47V17.3c-9-3.68-22.71-5.87-37-5.87s-28,2.19-37,5.87V44.47c0,14.86,6.28,27.61,18.66,37.92A71.26,71.26,0,0,0,42,90.89l.94.48V73.58a27,27,0,0,0-1-8,8.41,8.41,0,0,0-2.77-4.43c-1.43-1-3.24-1.15-5.53-.38a8.27,8.27,0,0,0-5.48,5.69c-.06.18-.11.37-.16.54A12.29,12.29,0,0,0,33.71,65a30.54,30.54,0,0,0,3.95-2.9,3,3,0,0,1,.55.31,5.64,5.64,0,0,1,1.67,2.27A35.49,35.49,0,0,1,35.46,68a15.33,15.33,0,0,1-7.87,2.44h-.13A15,15,0,0,1,24.18,70a16.52,16.52,0,0,1,.41-3.4,12.08,12.08,0,0,1,.32-1.21,11.68,11.68,0,0,1,7.65-7.9,11.34,11.34,0,0,1,4.66-.62,8,8,0,0,1,3.94,1.47,11.68,11.68,0,0,1,4,6.16,30.55,30.55,0,0,1,1.19,9.07v23c-.55-.21-1.75-.68-3.41-1.45-.74-.34-1.58-.75-2.49-1.22-2.15-1.09-4.27-2.31-6.32-3.62A71.43,71.43,0,0,1,26.91,85,57.73,57.73,0,0,1,13.26,68.86,49.55,49.55,0,0,1,8.74,57.74,51,51,0,0,1,7,44.47V15.07l1-.45a58.9,58.9,0,0,1,7.81-2.74,89.38,89.38,0,0,1,9.37-2.07c3.38-.58,7-1,10.64-1.32S43.55,8,47.47,8s7.83.15,11.61.46,7.26.74,10.65,1.32a90.52,90.52,0,0,1,9.37,2.07,58.74,58.74,0,0,1,7.8,2.74Z"/><path class="cls-2" d="M44.9,60c1.5-1.53,3.18-3.31,5.11-5.43q1.05-1.16,2.1-2.16l-.4-.21a25.23,25.23,0,0,1-2.64-1.58c-.53.53-1,1.08-1.58,1.66-1.79,2-3.4,3.68-4.85,5.16A11.46,11.46,0,0,1,44.9,60Z"/><path class="cls-1" d="M23.34,90.35l-1.9,16.83a.52.52,0,0,0,.85.52l14.16-5.86s2.12-1.33,3.93-.46,4-.87,4-.87L27.82,90.35Z"/></g></g></svg>