<svg xmlns="http://www.w3.org/2000/svg" viewBox="0 0 1197.93 1620.53"><defs><style>.cls-1{fill:#036;}.cls-2,.cls-7{font-size:24.05px;font-family:Montserrat-SemiBold, Montserrat;font-weight:600;}.cls-2{fill:#fff;}.cls-3{letter-spacing:0em;}.cls-4{letter-spacing:-0.04em;}.cls-5{letter-spacing:0em;}.cls-6{letter-spacing:0em;}.cls-15,.cls-7{fill:#007cc4;}.cls-8{letter-spacing:-0.01em;}.cls-9{letter-spacing:-0.02em;}.cls-10{letter-spacing:-0.01em;}.cls-11{letter-spacing:-0.01em;}.cls-12{letter-spacing:-0.02em;}.cls-13{letter-spacing:-0.06em;}.cls-14{letter-spacing:0em;}.cls-16{letter-spacing:0.01em;}.cls-17{letter-spacing:-0.02em;}.cls-18{letter-spacing:-0.02em;}.cls-19{letter-spacing:-0.01em;}.cls-20{letter-spacing:-0.01em;}.cls-21{letter-spacing:-0.02em;}.cls-22{letter-spacing:-0.05em;}.cls-23{letter-spacing:-0.02em;}.cls-24{letter-spacing:-0.01em;}.cls-25{letter-spacing:-0.02em;}.cls-26{fill:#1460be;}.cls-27,.cls-28,.cls-29,.cls-30{fill:none;stroke:#007cc4;stroke-miterlimit:10;}.cls-27{stroke-width:1.78px;}.cls-28{stroke-width:2.15px;}.cls-29{stroke-width:1.97px;}.cls-30{stroke-width:1.97px;}</style></defs><g id="Camada_2" data-name="Camada 2"><g id="Layer_1" data-name="Layer 1"><rect class="cls-1" x="409.75" width="380.55" height="101.14"/><text class="cls-2" transform="translate(493.19 57.37)"><tspan class="cls-3">A</tspan><tspan x="17.89" y="0">ssembleia Ge</tspan><tspan class="cls-4" x="183.06" y="0">r</tspan><tspan x="192.13" y="0">al</tspan></text><rect class="cls-1" x="410.26" y="374.27" width="380.55" height="101.14"/><text class="cls-2" transform="translate(444.68 432.64)"><tspan class="cls-3">A</tspan><tspan x="17.89" y="0">dminist</tspan><tspan class="cls-4" x="112.69" y="0">r</tspan><tspan class="cls-5" x="121.76" y="0">a</tspan><tspan x="136.38" y="0">dor Deleg</tspan><tspan class="cls-6" x="258.57" y="0">a</tspan><tspan x="273.19" y="0">do</tspan></text><text class="cls-7" transform="translate(82.17 1098.97)">Re<tspan class="cls-8" x="32.54" y="0">c</tspan><tspan x="46.32" y="0">ei</tspan><tspan class="cls-9" x="68.23" y="0">t</tspan><tspan x="77.97" y="0">a de Quo</tspan><tspan class="cls-9" x="189.46" y="0">t</tspan><tspan x="199.2" y="0">as</tspan></text><text class="cls-7" transform="translate(489.42 1098.97)">N<tspan class="cls-10" x="19.48" y="0">ov</tspan><tspan x="48.17" y="0">os Segu</tspan><tspan class="cls-11" x="145.86" y="0">r</tspan><tspan x="155.72" y="0">os </tspan><tspan x="0" y="21.38">So</tspan><tspan class="cls-3" x="30.64" y="21.38">c</tspan><tspan x="44.49" y="21.38">iais</tspan></text><text class="cls-7" transform="translate(892.44 1098.68)">Ga<tspan class="cls-11" x="33.16" y="0">b</tspan><tspan x="49.42" y="0">. Ob</tspan><tspan class="cls-4" x="98.67" y="0">r</tspan><tspan x="107.74" y="0">as e </tspan><tspan x="0" y="28.86">Pla</tspan><tspan class="cls-6" x="39.01" y="28.86">n</tspan><tspan class="cls-10" x="55.5" y="28.86">e</tspan><tspan x="70.1" y="28.86">a</tspan><tspan class="cls-6" x="84.7" y="28.86">m</tspan><tspan x="110.05" y="28.86">en</tspan><tspan class="cls-12" x="141.48" y="28.86">t</tspan><tspan x="151.24" y="28.86">o</tspan></text><text class="cls-7" transform="translate(82.17 1185.01)">Ges<tspan class="cls-9" x="45.91" y="0">t</tspan><tspan class="cls-5" x="55.65" y="0">ã</tspan><tspan x="70.27" y="0">o de </tspan><tspan class="cls-13" x="130.54" y="0">T</tspan><tspan x="143.69" y="0">esou</tspan><tspan class="cls-4" x="202.92" y="0">r</tspan><tspan x="211.99" y="0">a</tspan><tspan class="cls-14" x="226.59" y="0">r</tspan><tspan x="236.57" y="0">ia</tspan></text><path class="cls-15" d="M496.9,1185.21a12.43,12.43,0,0,1-3.77-.57,8.15,8.15,0,0,1-2.86-1.46l1.08-2.42a8.92,8.92,0,0,0,2.5,1.32,9.11,9.11,0,0,0,3,.53,6.57,6.57,0,0,0,2.14-.29,2.55,2.55,0,0,0,1.21-.78,1.8,1.8,0,0,0,.38-1.12,1.54,1.54,0,0,0-.55-1.24,4.29,4.29,0,0,0-1.43-.75q-.88-.27-1.95-.51c-.71-.16-1.43-.35-2.14-.57a8.57,8.57,0,0,1-1.95-.84,4.19,4.19,0,0,1-1.43-1.38,4,4,0,0,1-.55-2.21,4.55,4.55,0,0,1,.73-2.52,5.06,5.06,0,0,1,2.24-1.83,9.31,9.31,0,0,1,3.81-.68,12.21,12.21,0,0,1,3,.38,8.68,8.68,0,0,1,2.6,1.11l-1,2.43a9.54,9.54,0,0,0-2.34-1,9.1,9.1,0,0,0-2.31-.32,5.89,5.89,0,0,0-2.1.31,2.56,2.56,0,0,0-1.18.82,1.86,1.86,0,0,0-.37,1.15,1.56,1.56,0,0,0,.54,1.24,3.73,3.73,0,0,0,1.42.73c.58.18,1.24.35,2,.52s1.44.36,2.15.57a8.77,8.77,0,0,1,1.95.81,4.14,4.14,0,0,1,1.42,1.37,4.09,4.09,0,0,1,.54,2.19,4.5,4.5,0,0,1-.73,2.49,5.09,5.09,0,0,1-2.25,1.83A9.27,9.27,0,0,1,496.9,1185.21Z"/><path class="cls-15" d="M512,1185.13a6.5,6.5,0,0,1-2.89-.61,4.42,4.42,0,0,1-1.95-1.88,6.57,6.57,0,0,1-.69-3.18v-7.34h3v6.93a3.72,3.72,0,0,0,.78,2.58,2.89,2.89,0,0,0,2.23.86,3.71,3.71,0,0,0,1.84-.44,3,3,0,0,0,1.23-1.29,4.74,4.74,0,0,0,.44-2.14v-6.5h3V1185H516.1v-3.46l.5,1.06a4.44,4.44,0,0,1-1.9,1.91A5.78,5.78,0,0,1,512,1185.13Z"/><path class="cls-15" d="M522.9,1185v-17.84h3v8l-.24,3.42.09,3.41v3Zm7.12.17a5.81,5.81,0,0,1-2.91-.72,5,5,0,0,1-2-2.18,8.14,8.14,0,0,1-.73-3.69,7.88,7.88,0,0,1,.76-3.7,5,5,0,0,1,2-2.15A5.74,5.74,0,0,1,530,1172a6.63,6.63,0,0,1,3.35.82,6,6,0,0,1,2.31,2.28,7.41,7.41,0,0,1,0,6.93,6.19,6.19,0,0,1-2.31,2.29A6.53,6.53,0,0,1,530,1185.13Zm-.34-2.57a3.88,3.88,0,0,0,1.94-.48,3.53,3.53,0,0,0,1.36-1.4,4.85,4.85,0,0,0,0-4.29,3.54,3.54,0,0,0-1.36-1.38,4.16,4.16,0,0,0-3.88,0,3.43,3.43,0,0,0-1.37,1.38,4.77,4.77,0,0,0,0,4.29,3.42,3.42,0,0,0,1.37,1.4A3.9,3.9,0,0,0,529.68,1182.56Z"/><path class="cls-15" d="M543.37,1185.13a11.19,11.19,0,0,1-3.09-.42,8,8,0,0,1-2.35-1l1.16-2.28a8.78,8.78,0,0,0,4.47,1.27,4.14,4.14,0,0,0,2.06-.39,1.16,1.16,0,0,0,.63-1,.88.88,0,0,0-.43-.8,3.38,3.38,0,0,0-1.13-.43c-.47-.09-1-.18-1.55-.26s-1.14-.19-1.71-.32a5.76,5.76,0,0,1-1.55-.61,3.13,3.13,0,0,1-1.13-1.07,3.21,3.21,0,0,1-.43-1.78,3.39,3.39,0,0,1,.69-2.12,4.44,4.44,0,0,1,2-1.4,8.24,8.24,0,0,1,3-.49,11.82,11.82,0,0,1,2.62.29,7.16,7.16,0,0,1,2.19.81l-1.16,2.29a6.14,6.14,0,0,0-1.84-.76,8.86,8.86,0,0,0-1.84-.2,3.88,3.88,0,0,0-2,.41,1.19,1.19,0,0,0-.66,1,1,1,0,0,0,.43.87,3.6,3.6,0,0,0,1.13.45,14.66,14.66,0,0,0,1.56.28,14.35,14.35,0,0,1,1.69.32,7.33,7.33,0,0,1,1.55.59,3,3,0,0,1,1.14,1.05,3.17,3.17,0,0,1,.44,1.75,3.29,3.29,0,0,1-.71,2.1,4.68,4.68,0,0,1-2,1.38A8.73,8.73,0,0,1,543.37,1185.13Z"/><path class="cls-15" d="M551.28,1170.37l3.25-3.3h3.53l-4.18,3.3Zm.5,14.59v-12.84h3V1185Z"/><path class="cls-15" d="M564.17,1185.13a6.61,6.61,0,0,1-3.33-.83,6,6,0,0,1-2.32-2.29,7.57,7.57,0,0,1,0-6.93,5.85,5.85,0,0,1,2.32-2.28,6.71,6.71,0,0,1,3.33-.82,5.79,5.79,0,0,1,2.89.71,5,5,0,0,1,2,2.15,8.14,8.14,0,0,1,.74,3.7,8.28,8.28,0,0,1-.72,3.69,4.89,4.89,0,0,1-2,2.18A5.84,5.84,0,0,1,564.17,1185.13Zm.36-2.57a3.9,3.9,0,0,0,1.94-.48,3.62,3.62,0,0,0,1.37-1.4,4.77,4.77,0,0,0,0-4.29,3.63,3.63,0,0,0-1.37-1.38,4.16,4.16,0,0,0-3.88,0,3.7,3.7,0,0,0-1.37,1.38,4.77,4.77,0,0,0,0,4.29,3.69,3.69,0,0,0,1.37,1.4A3.9,3.9,0,0,0,564.53,1182.56Zm3.9,2.4v-3l.12-3.41-.24-3.42v-8h3V1185Z"/><path class="cls-15" d="M576.77,1170a1.9,1.9,0,0,1-1.38-.53,1.74,1.74,0,0,1-.54-1.28,1.69,1.69,0,0,1,.54-1.28,1.89,1.89,0,0,1,1.38-.52,2,2,0,0,1,1.38.49,1.62,1.62,0,0,1,.55,1.24,1.83,1.83,0,0,1-.53,1.33A1.85,1.85,0,0,1,576.77,1170Zm-1.51,15v-12.84h3V1185Z"/><path class="cls-15" d="M588,1185.13a7.07,7.07,0,0,1-3.51-.85,6.31,6.31,0,0,1-2.43-2.35,6.92,6.92,0,0,1,0-6.79,6.23,6.23,0,0,1,2.43-2.32A7.17,7.17,0,0,1,588,1172a7.36,7.36,0,0,1,3.55.84,6.19,6.19,0,0,1,2.42,2.31,7,7,0,0,1,0,6.8,6.21,6.21,0,0,1-2.42,2.35A7.25,7.25,0,0,1,588,1185.13Zm0-2.57a4,4,0,0,0,2-.48,3.4,3.4,0,0,0,1.36-1.4,4.94,4.94,0,0,0,0-4.29A3.41,3.41,0,0,0,590,1175a4,4,0,0,0-2-.48,3.93,3.93,0,0,0-2,.48,3.54,3.54,0,0,0-1.36,1.38,4.85,4.85,0,0,0,0,4.29,3.53,3.53,0,0,0,1.36,1.4A3.9,3.9,0,0,0,588,1182.56Z"/><path class="cls-15" d="M601.69,1185.13a11.19,11.19,0,0,1-3.09-.42,8,8,0,0,1-2.35-1l1.16-2.28a8.78,8.78,0,0,0,4.47,1.27,4.07,4.07,0,0,0,2-.39,1.15,1.15,0,0,0,.64-1,.88.88,0,0,0-.43-.8A3.38,3.38,0,0,0,603,1180c-.47-.09-1-.18-1.55-.26s-1.14-.19-1.71-.32a5.76,5.76,0,0,1-1.55-.61,3.13,3.13,0,0,1-1.13-1.07,3.21,3.21,0,0,1-.43-1.78,3.39,3.39,0,0,1,.69-2.12,4.44,4.44,0,0,1,2-1.4,8.2,8.2,0,0,1,3-.49,11.82,11.82,0,0,1,2.62.29,7.16,7.16,0,0,1,2.19.81l-1.16,2.29a6.14,6.14,0,0,0-1.84-.76,8.86,8.86,0,0,0-1.84-.2,3.88,3.88,0,0,0-2,.41,1.19,1.19,0,0,0-.66,1,1,1,0,0,0,.43.87,3.6,3.6,0,0,0,1.13.45,14.93,14.93,0,0,0,1.55.28,14.13,14.13,0,0,1,1.7.32,7.33,7.33,0,0,1,1.55.59,3,3,0,0,1,1.14,1.05,3.17,3.17,0,0,1,.44,1.75,3.29,3.29,0,0,1-.71,2.1,4.68,4.68,0,0,1-2,1.38A8.73,8.73,0,0,1,601.69,1185.13Z"/><path class="cls-15" d="M616.74,1189.63v-17.51h2.86v3l-.09,3.42.24,3.41v7.65Zm7.12-4.5a5.75,5.75,0,0,1-2.85-.72,5,5,0,0,1-2-2.18,7.86,7.86,0,0,1-.76-3.69,8.15,8.15,0,0,1,.73-3.7,4.94,4.94,0,0,1,2-2.15,5.81,5.81,0,0,1,2.91-.71,6.65,6.65,0,0,1,3.35.82,6,6,0,0,1,2.31,2.28,6.75,6.75,0,0,1,.86,3.46,6.85,6.85,0,0,1-.86,3.48,6,6,0,0,1-2.31,2.29A6.65,6.65,0,0,1,623.86,1185.13Zm-.34-2.57a3.9,3.9,0,0,0,1.94-.48,3.53,3.53,0,0,0,1.36-1.4,4.85,4.85,0,0,0,0-4.29,3.54,3.54,0,0,0-1.36-1.38,4.16,4.16,0,0,0-3.88,0,3.52,3.52,0,0,0-1.38,1.38,4.85,4.85,0,0,0,0,4.29,3.51,3.51,0,0,0,1.38,1.4A3.9,3.9,0,0,0,623.52,1182.56Z"/><path class="cls-15" d="M639,1185.13a7.12,7.12,0,0,1-3.51-.85,6.31,6.31,0,0,1-2.43-2.35,6.92,6.92,0,0,1,0-6.79,6.23,6.23,0,0,1,2.43-2.32A7.23,7.23,0,0,1,639,1172a7.36,7.36,0,0,1,3.55.84,6.28,6.28,0,0,1,2.43,2.31,7.08,7.08,0,0,1,0,6.8,6.31,6.31,0,0,1-2.43,2.35A7.25,7.25,0,0,1,639,1185.13Zm0-2.57a4,4,0,0,0,2-.48,3.4,3.4,0,0,0,1.36-1.4,4.94,4.94,0,0,0,0-4.29A3.41,3.41,0,0,0,641,1175a4.22,4.22,0,0,0-3.91,0,3.45,3.45,0,0,0-1.35,1.38,4.77,4.77,0,0,0,0,4.29,3.44,3.44,0,0,0,1.35,1.4A3.9,3.9,0,0,0,639,1182.56Z"/><path class="cls-15" d="M648.75,1185v-12.84h2.86v3.54l-.33-1a4.08,4.08,0,0,1,1.81-2,6.42,6.42,0,0,1,3.09-.67v2.86l-.36-.06h-.34a3.67,3.67,0,0,0-2.71,1,4,4,0,0,0-1,3V1185Z"/><path class="cls-15" d="M665.78,1185v-16.83h2.57l7.36,12.29h-1.35l7.24-12.29h2.57l0,16.83h-3l0-12.19h.62L675.68,1183h-1.39L668,1172.77h.72V1185Z"/><path class="cls-15" d="M694.23,1185.13a7.14,7.14,0,0,1-3.52-.85,6.73,6.73,0,0,1-2.42-9.14,6.28,6.28,0,0,1,2.42-2.32,7.84,7.84,0,0,1,7.06,0,6.15,6.15,0,0,1,2.43,2.31,7,7,0,0,1,0,6.8,6.17,6.17,0,0,1-2.43,2.35A7.19,7.19,0,0,1,694.23,1185.13Zm0-2.57a4,4,0,0,0,2-.48,3.4,3.4,0,0,0,1.36-1.4,4.94,4.94,0,0,0,0-4.29,3.41,3.41,0,0,0-1.36-1.38,4,4,0,0,0-2-.48,3.93,3.93,0,0,0-2,.48,3.54,3.54,0,0,0-1.36,1.38,4.85,4.85,0,0,0,0,4.29,3.53,3.53,0,0,0,1.36,1.4A3.88,3.88,0,0,0,694.23,1182.56Z"/><path class="cls-15" d="M704,1185v-12.84h2.86v3.54l-.34-1a4.1,4.1,0,0,1,1.82-2,6.37,6.37,0,0,1,3.09-.67v2.86l-.36-.06h-.34a3.69,3.69,0,0,0-2.72,1,4,4,0,0,0-1,3V1185Z"/><path class="cls-15" d="M712.72,1174.53v-2.41h8.56v2.41Zm6.54,10.6A4.57,4.57,0,0,1,716,1184a4.26,4.26,0,0,1-1.15-3.24v-11.52h3v11.45a2,2,0,0,0,.47,1.42,1.69,1.69,0,0,0,1.31.51,2.64,2.64,0,0,0,1.68-.53l.85,2.14a3.69,3.69,0,0,1-1.3.65A6,6,0,0,1,719.26,1185.13Z"/><path class="cls-15" d="M730.23,1185.13a7.79,7.79,0,0,1-3.74-.85,6.18,6.18,0,0,1-2.48-2.35,6.49,6.49,0,0,1-.88-3.39,6.68,6.68,0,0,1,.86-3.4,6.09,6.09,0,0,1,2.35-2.32,6.92,6.92,0,0,1,3.43-.84,6.69,6.69,0,0,1,3.34.82,5.87,5.87,0,0,1,2.31,2.3,7.08,7.08,0,0,1,.84,3.52c0,.12,0,.27,0,.43l0,.46H725.51v-2h9.12l-1.18.62a3.65,3.65,0,0,0-.46-1.94,3.49,3.49,0,0,0-1.31-1.33,3.74,3.74,0,0,0-1.91-.48,3.82,3.82,0,0,0-1.94.48,3.4,3.4,0,0,0-1.29,1.34,4,4,0,0,0-.47,2v.48a3.83,3.83,0,0,0,.53,2,3.47,3.47,0,0,0,1.49,1.37,4.89,4.89,0,0,0,2.21.48,5.46,5.46,0,0,0,2-.33,4.3,4.3,0,0,0,1.54-1.06l1.61,1.85a5.75,5.75,0,0,1-2.18,1.55A7.78,7.78,0,0,1,730.23,1185.13Z"/><path class="cls-15" d="M497.43,1214a7.85,7.85,0,0,1-3.74-.85,6.15,6.15,0,0,1-2.47-2.35,6.49,6.49,0,0,1-.88-3.39,6.68,6.68,0,0,1,.85-3.4,6.12,6.12,0,0,1,2.36-2.32,6.89,6.89,0,0,1,3.43-.84,6.8,6.8,0,0,1,3.34.81,6,6,0,0,1,2.31,2.31,7.07,7.07,0,0,1,.84,3.51c0,.13,0,.28,0,.44s0,.31,0,.45h-10.7v-2h9.11l-1.17.62a3.74,3.74,0,0,0-.46-1.94,3.49,3.49,0,0,0-1.31-1.33,4.1,4.1,0,0,0-3.85,0,3.42,3.42,0,0,0-1.3,1.34,4.15,4.15,0,0,0-.47,2v.48a3.92,3.92,0,0,0,.53,2,3.53,3.53,0,0,0,1.49,1.37,4.89,4.89,0,0,0,2.21.48,5.39,5.39,0,0,0,1.95-.33,4.22,4.22,0,0,0,1.54-1.06l1.61,1.85a5.63,5.63,0,0,1-2.17,1.55A7.83,7.83,0,0,1,497.43,1214Z"/><path class="cls-15" d="M513.28,1213.82V1197h6.9a8,8,0,0,1,5.28,1.59,5.37,5.37,0,0,1,1.91,4.4,5.77,5.77,0,0,1-.86,3.18,5.58,5.58,0,0,1-2.47,2,9.42,9.42,0,0,1-3.83.71H515l1.4-1.42v6.32Zm3.13-6-1.4-1.49h5a4.68,4.68,0,0,0,3.12-.89,3.47,3.47,0,0,0,0-5,4.8,4.8,0,0,0-3.12-.87h-5l1.4-1.53Zm7.88,6-4.25-6.11h3.34l4.28,6.11Z"/><path class="cls-15" d="M536.61,1214a7.79,7.79,0,0,1-3.74-.85,6.18,6.18,0,0,1-2.48-2.35,6.59,6.59,0,0,1-.88-3.39,6.68,6.68,0,0,1,.86-3.4,6.09,6.09,0,0,1,2.35-2.32,6.94,6.94,0,0,1,3.43-.84,6.77,6.77,0,0,1,3.34.81,6,6,0,0,1,2.31,2.31,7.07,7.07,0,0,1,.84,3.51c0,.13,0,.28,0,.44l0,.45H531.89v-2H541l-1.18.62a3.65,3.65,0,0,0-.46-1.94,3.42,3.42,0,0,0-1.31-1.33,3.74,3.74,0,0,0-1.91-.48,3.82,3.82,0,0,0-1.94.48,3.4,3.4,0,0,0-1.29,1.34,4,4,0,0,0-.47,2v.48a3.83,3.83,0,0,0,.53,2,3.53,3.53,0,0,0,1.49,1.37,4.89,4.89,0,0,0,2.21.48,5.46,5.46,0,0,0,2-.33,4.3,4.3,0,0,0,1.54-1.06l1.61,1.85a5.67,5.67,0,0,1-2.18,1.55A7.78,7.78,0,0,1,536.61,1214Z"/><path class="cls-15" d="M545.53,1213.82V1201h2.86v3.46l-.5-1a4.48,4.48,0,0,1,2-1.89,6.37,6.37,0,0,1,3-.66,6.14,6.14,0,0,1,2.75.6,4.35,4.35,0,0,1,1.91,1.84,6.37,6.37,0,0,1,.7,3.18v7.36h-3v-7a3.59,3.59,0,0,0-.8-2.55,3,3,0,0,0-2.25-.84,4,4,0,0,0-1.88.43,3,3,0,0,0-1.26,1.29,4.57,4.57,0,0,0-.44,2.15v6.49Z"/><path class="cls-15" d="M567.46,1214a6.74,6.74,0,0,1-3.33-.83,6,6,0,0,1-2.32-2.29,7.57,7.57,0,0,1,0-6.93,5.94,5.94,0,0,1,2.32-2.29,6.84,6.84,0,0,1,3.33-.81,5.76,5.76,0,0,1,2.89.71,5,5,0,0,1,2,2.15,8.14,8.14,0,0,1,.74,3.7,8.31,8.31,0,0,1-.72,3.69,5,5,0,0,1-2,2.18A5.88,5.88,0,0,1,567.46,1214Zm.36-2.57a3.9,3.9,0,0,0,1.94-.48,3.62,3.62,0,0,0,1.37-1.4,4.68,4.68,0,0,0,0-4.29,3.63,3.63,0,0,0-1.37-1.38,3.9,3.9,0,0,0-1.94-.48,3.84,3.84,0,0,0-1.93.48,3.56,3.56,0,0,0-1.37,1.38,4.68,4.68,0,0,0,0,4.29,3.55,3.55,0,0,0,1.37,1.4A3.84,3.84,0,0,0,567.82,1211.42Zm3.9,2.4v-3l.12-3.41-.24-3.42v-8h3v17.84Z"/><path class="cls-15" d="M582.42,1214a6.08,6.08,0,0,1-2.53-.49,4,4,0,0,1-1.67-1.37,3.53,3.53,0,0,1-.59-2,3.73,3.73,0,0,1,.52-1.94,3.52,3.52,0,0,1,1.7-1.38,8.14,8.14,0,0,1,3.12-.5h3.73v2h-3.51a3.12,3.12,0,0,0-2.07.49,1.6,1.6,0,0,0-.53,1.21,1.54,1.54,0,0,0,.65,1.3,3,3,0,0,0,1.8.48,4,4,0,0,0,2-.5,2.89,2.89,0,0,0,1.26-1.49l.51,1.8a3.4,3.4,0,0,1-1.55,1.76A5.84,5.84,0,0,1,582.42,1214Zm4-.17v-2.59l-.17-.56v-4.54a2.67,2.67,0,0,0-.79-2.06,3.44,3.44,0,0,0-2.41-.73,7.07,7.07,0,0,0-2.13.33,5.37,5.37,0,0,0-1.76.94l-1.18-2.19a7.23,7.23,0,0,1,2.46-1.19,11.31,11.31,0,0,1,3-.39,6.36,6.36,0,0,1,4.32,1.33,5.2,5.2,0,0,1,1.53,4.13v7.52Z"/><path class="cls-15" d="M597.11,1214a11.3,11.3,0,0,1-3.09-.42,8,8,0,0,1-2.34-1l1.15-2.29a8.24,8.24,0,0,0,2.07.92,8.33,8.33,0,0,0,2.41.36,4.07,4.07,0,0,0,2.05-.39,1.15,1.15,0,0,0,.64-1,.91.91,0,0,0-.43-.81,3.61,3.61,0,0,0-1.13-.42c-.47-.09-1-.18-1.55-.26a17.17,17.17,0,0,1-1.71-.33,5.44,5.44,0,0,1-1.55-.6,3.13,3.13,0,0,1-1.13-1.07,3.23,3.23,0,0,1-.44-1.78,3.45,3.45,0,0,1,.7-2.13,4.5,4.5,0,0,1,2-1.39,8.18,8.18,0,0,1,3-.49,11.91,11.91,0,0,1,2.63.29,7.16,7.16,0,0,1,2.19.81l-1.16,2.29a6.14,6.14,0,0,0-1.84-.76,8.29,8.29,0,0,0-1.84-.2,4,4,0,0,0-2,.4,1.21,1.21,0,0,0-.66,1,1,1,0,0,0,.43.86,3.37,3.37,0,0,0,1.13.46,14.46,14.46,0,0,0,1.55.28,14.13,14.13,0,0,1,1.7.32,7.33,7.33,0,0,1,1.55.59,3,3,0,0,1,1.14,1,3.17,3.17,0,0,1,.43,1.75,3.24,3.24,0,0,1-.71,2.1,4.59,4.59,0,0,1-2,1.38A8.75,8.75,0,0,1,597.11,1214Z"/><path class="cls-15" d="M617.44,1213.82,610.08,1197h3.39l6.56,15.22h-1.95l6.64-15.22h3.13l-7.34,16.83Z"/><path class="cls-15" d="M631,1198.86a1.9,1.9,0,0,1-1.39-.52,1.8,1.8,0,0,1,0-2.57,1.94,1.94,0,0,1,1.39-.51,2,2,0,0,1,1.38.49,1.61,1.61,0,0,1,.54,1.24,1.83,1.83,0,0,1-.53,1.33A1.86,1.86,0,0,1,631,1198.86Zm-1.52,15V1201h3v12.84Z"/><path class="cls-15" d="M634.7,1203.39V1201h8.56v2.41Zm6.54,10.6a4.57,4.57,0,0,1-3.27-1.09,4.26,4.26,0,0,1-1.15-3.24v-11.52h3v11.45a2,2,0,0,0,.46,1.42,1.7,1.7,0,0,0,1.32.5,2.65,2.65,0,0,0,1.68-.52l.84,2.14a3.6,3.6,0,0,1-1.3.64A5.6,5.6,0,0,1,641.24,1214Z"/><path class="cls-15" d="M650,1214a6,6,0,0,1-2.52-.49,3.93,3.93,0,0,1-1.67-1.37,3.45,3.45,0,0,1-.59-2,3.72,3.72,0,0,1,.51-1.94,3.52,3.52,0,0,1,1.7-1.38,8.19,8.19,0,0,1,3.13-.5h3.72v2h-3.51a3.14,3.14,0,0,0-2.07.49,1.6,1.6,0,0,0-.53,1.21,1.54,1.54,0,0,0,.65,1.3,3,3,0,0,0,1.81.48,4,4,0,0,0,2-.5,2.85,2.85,0,0,0,1.26-1.49l.51,1.8a3.4,3.4,0,0,1-1.55,1.76A5.84,5.84,0,0,1,650,1214Zm4-.17v-2.59l-.17-.56v-4.54a2.67,2.67,0,0,0-.79-2.06,3.43,3.43,0,0,0-2.4-.73,7,7,0,0,0-2.13.33,5.32,5.32,0,0,0-1.77.94l-1.18-2.19a7.19,7.19,0,0,1,2.47-1.19,11.2,11.2,0,0,1,3-.39,6.35,6.35,0,0,1,4.31,1.33,5.2,5.2,0,0,1,1.53,4.13v7.52Z"/><path class="cls-15" d="M660.75,1213.82V1196h3v17.84Z"/><path class="cls-15" d="M667.19,1199.23l3.25-3.3H674l-4.18,3.3Zm.51,14.59V1201h3v12.84Z"/><path class="cls-15" d="M680.54,1214a7.42,7.42,0,0,1-3.6-.85,6.25,6.25,0,0,1-2.46-2.35,6.92,6.92,0,0,1,0-6.79,6.18,6.18,0,0,1,2.46-2.32,7.53,7.53,0,0,1,3.6-.84,7.05,7.05,0,0,1,3.31.75,5,5,0,0,1,2.17,2.23l-2.31,1.35a3.68,3.68,0,0,0-1.4-1.35,3.81,3.81,0,0,0-1.79-.43,4.14,4.14,0,0,0-2,.48,3.51,3.51,0,0,0-1.4,1.38,4.87,4.87,0,0,0,0,4.3,3.47,3.47,0,0,0,1.4,1.39,4.14,4.14,0,0,0,2,.48,3.94,3.94,0,0,0,1.79-.43,3.68,3.68,0,0,0,1.4-1.35L686,1211a5.17,5.17,0,0,1-2.17,2.22A6.83,6.83,0,0,1,680.54,1214Z"/><path class="cls-15" d="M690,1198.86a1.9,1.9,0,0,1-1.39-.52,1.8,1.8,0,0,1,0-2.57,1.94,1.94,0,0,1,1.39-.51,2,2,0,0,1,1.38.49,1.61,1.61,0,0,1,.54,1.24,1.83,1.83,0,0,1-.53,1.33A1.86,1.86,0,0,1,690,1198.86Zm-1.52,15V1201h3v12.84Z"/><path class="cls-15" d="M699.32,1214a6,6,0,0,1-2.52-.49,3.93,3.93,0,0,1-1.67-1.37,3.45,3.45,0,0,1-.59-2,3.72,3.72,0,0,1,.51-1.94,3.52,3.52,0,0,1,1.7-1.38,8.23,8.23,0,0,1,3.13-.5h3.72v2h-3.51a3.16,3.16,0,0,0-2.07.49,1.59,1.59,0,0,0-.52,1.21,1.51,1.51,0,0,0,.65,1.3,3,3,0,0,0,1.8.48,3.94,3.94,0,0,0,2-.5,2.91,2.91,0,0,0,1.27-1.49l.5,1.8a3.4,3.4,0,0,1-1.55,1.76A5.84,5.84,0,0,1,699.32,1214Zm4-.17v-2.59l-.16-.56v-4.54a2.67,2.67,0,0,0-.8-2.06,3.43,3.43,0,0,0-2.4-.73,7.07,7.07,0,0,0-2.13.33,5.32,5.32,0,0,0-1.77.94l-1.18-2.19a7.19,7.19,0,0,1,2.47-1.19,11.2,11.2,0,0,1,3-.39,6.32,6.32,0,0,1,4.31,1.33,5.2,5.2,0,0,1,1.53,4.13v7.52Z"/><path class="cls-15" d="M714,1214a11.19,11.19,0,0,1-3.09-.42,8,8,0,0,1-2.35-1l1.16-2.29a8,8,0,0,0,2.06.92,8.43,8.43,0,0,0,2.41.36,4.12,4.12,0,0,0,2.06-.39,1.16,1.16,0,0,0,.63-1,.91.91,0,0,0-.43-.81,3.61,3.61,0,0,0-1.13-.42c-.47-.09-1-.18-1.55-.26a17.17,17.17,0,0,1-1.71-.33,5.44,5.44,0,0,1-1.55-.6,3,3,0,0,1-1.56-2.85,3.44,3.44,0,0,1,.69-2.13,4.5,4.5,0,0,1,2-1.39,8.24,8.24,0,0,1,3-.49,11.82,11.82,0,0,1,2.62.29,7.16,7.16,0,0,1,2.19.81l-1.16,2.29a6.14,6.14,0,0,0-1.84-.76,8.23,8.23,0,0,0-1.84-.2,4,4,0,0,0-2,.4,1.21,1.21,0,0,0-.66,1,1,1,0,0,0,.43.86,3.37,3.37,0,0,0,1.13.46,14.66,14.66,0,0,0,1.56.28,14.35,14.35,0,0,1,1.69.32,7.33,7.33,0,0,1,1.55.59,3,3,0,0,1,1.14,1,3.17,3.17,0,0,1,.44,1.75,3.29,3.29,0,0,1-.71,2.1,4.62,4.62,0,0,1-2,1.38A8.73,8.73,0,0,1,714,1214Z"/><text class="cls-7" transform="translate(892.44 1184.96)">Ges<tspan class="cls-16" x="45.91" y="0">t</tspan><tspan x="56.35" y="0">. </tspan><tspan class="cls-17" x="68.85" y="0">C</tspan><tspan x="85.64" y="0">ont</tspan><tspan class="cls-4" x="127.82" y="0">r</tspan><tspan x="136.88" y="0">a</tspan><tspan class="cls-12" x="151.48" y="0">t</tspan><tspan x="161.25" y="0">os </tspan><tspan x="0" y="28.86">Relati</tspan><tspan class="cls-10" x="71.23" y="28.86">v</tspan><tspan x="84.77" y="28.86">os a </tspan><tspan class="cls-18" x="140.54" y="28.86">P</tspan><tspan class="cls-11" x="157.64" y="28.86">r</tspan><tspan x="167.5" y="28.86">édios</tspan></text><text class="cls-7" transform="translate(82.17 1466.48)">Ges<tspan class="cls-9" x="45.91" y="0">t</tspan><tspan class="cls-5" x="55.65" y="0">ã</tspan><tspan x="70.27" y="0">o Fina</tspan><tspan class="cls-6" x="145.76" y="0">n</tspan><tspan class="cls-8" x="162.26" y="0">c</tspan><tspan x="176.04" y="0">ei</tspan><tspan class="cls-4" x="197.95" y="0">r</tspan><tspan x="207.01" y="0">a</tspan></text><text class="cls-7" transform="translate(489.42 1466.48)">In<tspan class="cls-8" x="24.14" y="0">f</tspan><tspan x="32.83" y="0">o</tspan><tspan class="cls-3" x="48.34" y="0">r</tspan><tspan x="58.32" y="0">mática</tspan></text><text class="cls-7" transform="translate(892.44 1466.48)">Ges<tspan class="cls-9" x="45.91" y="0">t</tspan><tspan class="cls-5" x="55.65" y="0">ã</tspan><tspan x="70.27" y="0">o de I</tspan><tspan class="cls-6" x="138.21" y="0">n</tspan><tspan x="154.71" y="0">quili</tspan><tspan class="cls-6" x="208.43" y="0">n</tspan><tspan x="224.93" y="0">os</tspan></text><text class="cls-7" transform="translate(82.17 1551.55)"><tspan class="cls-17">C</tspan><tspan x="16.79" y="0">on</tspan><tspan class="cls-9" x="48.77" y="0">t</tspan><tspan x="58.51" y="0">abilid</tspan><tspan class="cls-6" x="126.98" y="0">a</tspan><tspan x="141.6" y="0">de</tspan></text><text class="cls-7" transform="translate(489.42 1551.51)">Ges<tspan class="cls-9" x="45.91" y="0">t</tspan><tspan class="cls-5" x="55.65" y="0">ã</tspan><tspan x="70.27" y="0">o de </tspan><tspan class="cls-17" x="0" y="28.86">C</tspan><tspan x="16.79" y="28.86">ont</tspan><tspan class="cls-4" x="58.97" y="28.86">r</tspan><tspan x="68.03" y="28.86">a</tspan><tspan class="cls-12" x="82.63" y="28.86">t</tspan><tspan x="92.4" y="28.86">os e </tspan><tspan x="0" y="57.72">Ap</tspan><tspan class="cls-11" x="34.51" y="57.72">r</tspan><tspan class="cls-18" x="44.37" y="57.72">o</tspan><tspan x="59.52" y="57.72">visiona</tspan><tspan class="cls-5" x="146.29" y="57.72">m</tspan><tspan x="171.64" y="57.72">en</tspan><tspan class="cls-12" x="203.07" y="57.72">t</tspan><tspan x="212.83" y="57.72">os</tspan></text><text class="cls-7" transform="translate(892.44 1551.52)">Ges<tspan class="cls-9" x="45.91" y="0">t</tspan><tspan class="cls-5" x="55.65" y="0">ã</tspan><tspan x="70.27" y="0">o </tspan><tspan class="cls-19" x="92.42" y="0">P</tspan><tspan x="109.59" y="0">ess</tspan><tspan class="cls-20" x="149.32" y="0">o</tspan><tspan x="164.66" y="0">al A</tspan><tspan class="cls-8" x="210.86" y="0">f</tspan><tspan x="219.54" y="0">e</tspan><tspan class="cls-12" x="234.5" y="0">t</tspan><tspan x="244.27" y="0">o </tspan><tspan class="cls-6" x="0" y="28.86">a</tspan><tspan x="14.62" y="28.86">os I</tspan><tspan class="cls-5" x="56.83" y="28.86">m</tspan><tspan class="cls-18" x="82.17" y="28.86">óv</tspan><tspan x="110.86" y="28.86">eis</tspan></text><text class="cls-7" transform="translate(51.69 706.91)"><tspan class="cls-3">A</tspan><tspan x="17.89" y="0">tuá</tspan><tspan class="cls-3" x="59.06" y="0">r</tspan><tspan x="69.04" y="0">io</tspan></text><text class="cls-7" transform="translate(525.44 706.97)">Ma<tspan class="cls-3" x="37.56" y="0">r</tspan><tspan class="cls-21" x="47.54" y="0">k</tspan><tspan x="62.29" y="0">eti</tspan><tspan class="cls-6" x="94.39" y="0">n</tspan><tspan x="110.89" y="0">g e </tspan><tspan class="cls-17" x="-10.47" y="21.38">C</tspan><tspan x="6.31" y="21.38">omunic</tspan><tspan class="cls-6" x="100.92" y="21.38">a</tspan><tspan x="115.54" y="21.38">ç</tspan><tspan class="cls-5" x="129.52" y="21.38">ã</tspan><tspan x="144.14" y="21.38">o</tspan></text><text class="cls-7" transform="translate(299.35 706.91)"><tspan class="cls-6">J</tspan><tspan x="12.7" y="0">u</tspan><tspan class="cls-14" x="29.07" y="0">r</tspan><tspan x="39.06" y="0">ídi</tspan><tspan class="cls-8" x="69.48" y="0">c</tspan><tspan x="83.26" y="0">o</tspan></text><rect class="cls-1" x="2.12" y="510.94" width="380.55" height="101.14"/><text class="cls-2" transform="translate(22.24 567.35)"><tspan class="cls-17">C</tspan><tspan x="16.79" y="0">onsel</tspan><tspan class="cls-6" x="83.07" y="0">h</tspan><tspan x="99.56" y="0">o de </tspan><tspan class="cls-3" x="159.83" y="0">A</tspan><tspan x="177.72" y="0">dminist</tspan><tspan class="cls-4" x="272.52" y="0">r</tspan><tspan class="cls-5" x="281.59" y="0">a</tspan><tspan x="296.21" y="0">ç</tspan><tspan class="cls-6" x="310.18" y="0">ã</tspan><tspan x="324.8" y="0">o</tspan></text><rect class="cls-1" x="817.38" y="510.94" width="370.68" height="101.14"/><text class="cls-2" transform="translate(834.76 553.1)">Di<tspan class="cls-11" x="26.81" y="0">r</tspan><tspan x="36.67" y="0">. </tspan><tspan class="cls-22" x="49.18" y="0">T</tspan><tspan x="62.33" y="0">écnica, </tspan><tspan class="cls-3" x="155.77" y="0">A</tspan><tspan x="173.66" y="0">dminist</tspan><tspan class="cls-4" x="268.46" y="0">r</tspan><tspan x="277.53" y="0">ati</tspan><tspan class="cls-23" x="309.27" y="0">v</tspan><tspan x="322.62" y="0">a </tspan><tspan x="37.77" y="28.86">e Recursos Huma</tspan><tspan class="cls-6" x="255.05" y="28.86">n</tspan><tspan x="271.55" y="28.86">os</tspan></text><rect class="cls-1" x="7.43" y="856.07" width="370.68" height="72.45"/><text class="cls-2" transform="translate(95.85 901.34)">De<tspan class="cls-11" x="34.82" y="0">p</tspan><tspan x="51.08" y="0">. Fina</tspan><tspan class="cls-6" x="116.93" y="0">n</tspan><tspan class="cls-8" x="133.42" y="0">c</tspan><tspan x="147.2" y="0">ei</tspan><tspan class="cls-11" x="169.11" y="0">r</tspan><tspan x="178.97" y="0">o</tspan></text><rect class="cls-1" x="414.69" y="856.07" width="370.68" height="72.45"/><text class="cls-2" transform="translate(515.04 889.99)">De<tspan class="cls-11" x="34.82" y="0">p</tspan><tspan x="51.08" y="0">. Só</tspan><tspan class="cls-3" x="94.22" y="0">c</tspan><tspan x="108.08" y="0">ios e </tspan><tspan x="7.39" y="28.86">Ope</tspan><tspan class="cls-4" x="59.1" y="28.86">r</tspan><tspan class="cls-5" x="68.17" y="28.86">a</tspan><tspan class="cls-3" x="82.79" y="28.86">c</tspan><tspan x="96.64" y="28.86">ional</tspan></text><rect class="cls-1" x="817.7" y="856.07" width="370.68" height="72.45"/><text class="cls-2" transform="translate(902.27 901.34)">De<tspan class="cls-11" x="34.82" y="0">p</tspan><tspan x="51.08" y="0">. </tspan><tspan class="cls-10" x="63.58" y="0">P</tspan><tspan x="80.68" y="0">at</tspan><tspan class="cls-14" x="105.48" y="0">r</tspan><tspan x="115.46" y="0">i</tspan><tspan class="cls-6" x="122.41" y="0">m</tspan><tspan x="147.76" y="0">ónio</tspan></text><rect class="cls-15" x="854.81" y="968.49" width="333.57" height="72.45"/><text class="cls-2" transform="translate(908.21 1013.72)">Ges<tspan class="cls-9" x="45.91" y="0">t</tspan><tspan class="cls-5" x="55.65" y="0">ã</tspan><tspan x="70.27" y="0">o de I</tspan><tspan class="cls-6" x="138.21" y="0">m</tspan><tspan class="cls-10" x="163.55" y="0">óv</tspan><tspan x="192.24" y="0">eis</tspan></text><rect class="cls-15" x="451.79" y="968.49" width="333.57" height="72.45"/><text class="cls-2" transform="translate(513.52 1013.72)">Ges<tspan class="cls-9" x="45.91" y="0">t</tspan><tspan class="cls-5" x="55.65" y="0">ã</tspan><tspan x="70.27" y="0">o de Só</tspan><tspan class="cls-3" x="161.17" y="0">c</tspan><tspan x="175.03" y="0">ios</tspan></text><rect class="cls-15" x="44.54" y="968.49" width="333.57" height="72.45"/><text class="cls-2" transform="translate(147.41 1013.72)"><tspan class="cls-22">T</tspan><tspan x="13.16" y="0">esou</tspan><tspan class="cls-4" x="72.39" y="0">r</tspan><tspan x="81.46" y="0">a</tspan><tspan class="cls-3" x="96.05" y="0">r</tspan><tspan x="106.03" y="0">ia</tspan></text><rect class="cls-15" x="854.81" y="1339.63" width="333.57" height="72.45"/><text class="cls-2" transform="translate(917.13 1373)">Ges<tspan class="cls-16" x="45.91" y="0">t</tspan><tspan x="56.35" y="0">. I</tspan><tspan class="cls-5" x="76.52" y="0">n</tspan><tspan x="93.02" y="0">quili</tspan><tspan class="cls-6" x="146.75" y="0">n</tspan><tspan x="163.24" y="0">os e </tspan><tspan class="cls-24" x="59.47" y="28.86">P</tspan><tspan x="76.64" y="28.86">ess</tspan><tspan class="cls-20" x="116.37" y="28.86">o</tspan><tspan x="131.72" y="28.86">al</tspan></text><rect class="cls-15" x="451.79" y="1339.63" width="333.57" height="72.45"/><text class="cls-2" transform="translate(498.27 1368.39)">Ges<tspan class="cls-16" x="45.91" y="0">t</tspan><tspan x="56.35" y="0">. Ope</tspan><tspan class="cls-4" x="120.55" y="0">r</tspan><tspan class="cls-5" x="129.62" y="0">a</tspan><tspan class="cls-3" x="144.24" y="0">c</tspan><tspan x="158.1" y="0">ional e </tspan><tspan class="cls-3" x="-7.85" y="28.86">A</tspan><tspan x="10.04" y="28.86">ç</tspan><tspan class="cls-5" x="24.01" y="28.86">ã</tspan><tspan x="38.63" y="28.86">o </tspan><tspan class="cls-25" x="60.78" y="28.86">C</tspan><tspan x="77.57" y="28.86">omple</tspan><tspan class="cls-5" x="156.81" y="28.86">m</tspan><tspan x="182.16" y="28.86">en</tspan><tspan class="cls-9" x="213.59" y="28.86">t</tspan><tspan x="223.33" y="28.86">ar</tspan></text><rect class="cls-15" x="44.54" y="1339.63" width="333.57" height="72.45"/><text class="cls-2" transform="translate(103.41 1371.18)">Ges<tspan class="cls-16" x="45.91" y="0">t</tspan><tspan x="56.35" y="0">. Fina</tspan><tspan class="cls-5" x="122.19" y="0">n</tspan><tspan class="cls-8" x="138.69" y="0">c</tspan><tspan x="152.47" y="0">ei</tspan><tspan class="cls-4" x="174.38" y="0">r</tspan><tspan x="183.44" y="0">a e </tspan><tspan class="cls-17" x="23.28" y="28.86">C</tspan><tspan x="40.07" y="28.86">on</tspan><tspan class="cls-9" x="72.05" y="28.86">t</tspan><tspan x="81.79" y="28.86">abilid</tspan><tspan class="cls-6" x="150.26" y="28.86">a</tspan><tspan x="164.88" y="28.86">de</tspan></text><rect class="cls-26" x="409.75" y="190.21" width="380.55" height="101.14"/><text class="cls-2" transform="translate(427.14 251.71)"><tspan class="cls-17">C</tspan><tspan x="16.79" y="0">onsel</tspan><tspan class="cls-6" x="83.07" y="0">h</tspan><tspan x="99.56" y="0">o de </tspan><tspan class="cls-3" x="159.83" y="0">A</tspan><tspan x="177.72" y="0">dminist</tspan><tspan class="cls-4" x="272.52" y="0">r</tspan><tspan class="cls-5" x="281.59" y="0">a</tspan><tspan x="296.21" y="0">ç</tspan><tspan class="cls-6" x="310.18" y="0">ã</tspan><tspan x="324.8" y="0">o</tspan></text><rect class="cls-26" x="817.38" y="190.21" width="380.55" height="101.14"/><text class="cls-2" transform="translate(912.04 248.45)"><tspan class="cls-17">C</tspan><tspan x="16.79" y="0">onsel</tspan><tspan class="cls-6" x="83.07" y="0">h</tspan><tspan x="99.56" y="0">o Fiscal</tspan></text><line class="cls-27" x1="600.02" y1="108.11" x2="600.02" y2="183.23"/><polyline class="cls-27" points="600.02 145.67 1007.98 145.67 1007.98 183.23"/><line class="cls-27" x1="600.02" y1="298.32" x2="600.02" y2="373.44"/><polyline class="cls-27" points="804 430.98 1007.98 430.98 1007.98 502.92"/><line class="cls-27" x1="1007.98" y1="848.82" x2="1007.98" y2="619.32"/><polyline class="cls-27" points="396.37 430.98 192.4 430.98 192.4 502.92"/><polyline class="cls-27" points="193.09 849.6 193.09 787.18 1007.98 787.18"/><line class="cls-27" x1="597.91" y1="849.6" x2="597.91" y2="787.18"/><polyline class="cls-27" points="24.08 934.71 24.08 1384.16 38.28 1384.16"/><line class="cls-27" x1="38.28" y1="998.25" x2="24.08" y2="998.25"/><polyline class="cls-27" points="429.86 934.71 429.86 1384.16 444.06 1384.16"/><line class="cls-27" x1="444.06" y1="998.25" x2="429.86" y2="998.25"/><polyline class="cls-27" points="833.92 934.71 833.92 1384.16 848.12 1384.16"/><line class="cls-27" x1="848.12" y1="998.25" x2="833.92" y2="998.25"/><line class="cls-27" x1="62.91" y1="1048.02" x2="62.91" y2="1216.26"/><line class="cls-27" x1="468.48" y1="1048.02" x2="468.48" y2="1216.26"/><line class="cls-27" x1="873.25" y1="1048.02" x2="873.25" y2="1216.26"/><line class="cls-27" x1="62.91" y1="1422.07" x2="62.91" y2="1590.3"/><line class="cls-27" x1="468.48" y1="1422.07" x2="468.48" y2="1590.3"/><line class="cls-27" x1="873.25" y1="1422.07" x2="873.25" y2="1590.3"/><line class="cls-28" x1="500.46" y1="666.44" x2="695.35" y2="666.44"/><line class="cls-28" x1="254.26" y1="666.44" x2="449.15" y2="666.44"/><line class="cls-28" y1="666.44" x2="194.89" y2="666.44"/><polyline class="cls-29" points="193.09 619.62 193.09 643.06 97.44 643.06 97.44 666.44"/><polyline class="cls-29" points="597.91 666.44 597.91 642.86 193.09 643.06"/><line class="cls-30" x1="351.71" y1="642.98" x2="351.71" y2="666.44"/><text/></g></g></svg>