<svg xmlns="http://www.w3.org/2000/svg" viewBox="0 0 545.33 701.19"><defs><style>.cls-1{fill:#223561;}</style></defs><g id="Camada_2" data-name="Camada 2"><g id="Layer_1" data-name="Layer 1"><path class="cls-1" d="M305.05,542a197.32,197.32,0,0,0-8.32,21.42c-9.5,29.24-14.32,64.63-14.32,105.19v31.36c7.82-3,21.56-8.56,39.59-16.92V668.57c0-36.4,4.16-67.67,12.38-93,.53-1.63,1.07-3.22,1.63-4.79q-7-6.18-14.21-12.89-8.1-7.54-16.75-16"/><path class="cls-1" d="M218.76,684.44c19.15,8.87,33,14.34,39.41,16.75V668.57c0-40.89-4.65-76.38-13.84-105.49-10.24-32.5-26-56.61-46.89-71.65a92.8,92.8,0,0,0-45.8-17.14c-16.7-1.63-34.94.79-54.2,7.22-43.9,14.62-74.67,46.41-89,91.89-1.51,4.79-2.76,9.48-3.78,14A192.08,192.08,0,0,0,0,627a171.41,171.41,0,0,0,38.08,4.44H39.6c30.66-.3,60.26-9.66,91.56-28.44,16-9.6,33-22,51.43-37.67-5.46-12.05-12.05-21-19.44-26.35a33.38,33.38,0,0,0-6.38-3.63c-16.84,14.28-31.85,25.22-46,33.7-23.15,13.89-44.5,21.3-66.4,22.52.54-2.07,1.15-4.17,1.81-6.29,10.51-33.36,32-55.63,63.76-66.24,26.73-8.91,47.78-7.44,64.33,4.48,13.8,10,24.66,27.26,32.3,51.45,8,25.25,12,56.74,12,93.58"/><path class="cls-1" d="M540.57,587c-1-4.41-2.22-9-3.69-13.61-14.32-45.49-45.09-77.28-89-91.9-15.27-5.1-29.94-7.64-43.76-7.67a109.89,109.89,0,0,0-13.41.5,95.65,95.65,0,0,0-33.64,9.72c11.6,11.38,22.44,21.49,32.63,30.44.65-.12,1.32-.19,2-.28.11.09.22.18.32.28a64.87,64.87,0,0,1,9.7-1c9.62,0,20.09,1.82,31.41,5.59,31.42,10.48,52.74,32.37,63.38,65.08.82,2.52,1.54,5,2.18,7.45-35.49-2.2-71.57-21-119.32-62.89l.18-.19-31.94-29.94-.78-.7c-1.13-.95-2.19-1.78-3.3-2.7l-.76-.74-.05.08c-13.09-10.77-24.88-19.35-35.34-26.9l-.29-.21c.72-.39,1.48-.74,2.2-1.14a142.7,142.7,0,0,0,70.85-99.62,144.14,144.14,0,0,0-31.92-119.3l-.69-.8c12.29-29.8,24.86-60.53,35.67-91.7,6-17.23,10.9-32.22,15-45.81.51-1.66,1.06-3.33,1.61-5,4-12.18,9.43-28.86,2.47-47-3.25-8.44-9.53-19.6-14.57-28.58l-2.32-4.16C365.48-11.51,335.84,1.46,324.7,6.35c-1.83.8-3.75,1.65-5.79,2.44-2.37.92-4.59,1.74-6.69,2.51-16.09,5.89-34.34,12.57-44,42.12-4.35,13.33,0,25.1,3,32.92A49,49,0,0,0,259,93.41a48,48,0,0,0-17.25,46.79,49.06,49.06,0,0,0,4.59,12.92c-7.71,4.22-18.9,10.61-24.2,24l-6.55,21.53c-71.46,12.85-122,72.68-120.95,144A143.6,143.6,0,0,0,261.06,483c7.23,5.84,14.84,11.34,22.87,17.13,7.27,5.25,15.25,11,23.73,17.65Q322,532.05,334.78,544C364,571.11,389.55,591,413,604.67c30.72,17.94,60,26.77,90.32,26.77h.1c.39,0,.78,0,1.17,0s.67,0,1,0h.11a172.56,172.56,0,0,0,39.6-4.81A191.59,191.59,0,0,0,540.57,587M143.47,341.87c-.74-47.86,34.27-88,83.35-95.61l1,0c6.05-.2,17.31-.57,25.42-10.15l3.27-3.88,10.39-34.63c1.1-.64,2.46-1.39,3.51-2,8.89-4.86,27.4-15,27.66-38.3.11-11.4-4.4-19.48-7.09-24.3-.3-.53-.66-1.18-.93-1.63.63-.26,1.45-.56,2.12-.8,6.48-2.38,18.54-6.82,25.72-21.31,8-16.15,2.41-31-.93-39.95-.41-1.07-.94-2.49-1.32-3.62,1.62-4.26,3.23-4.85,13.37-8.56,2.4-.89,4.95-1.82,7.66-2.88s5.22-2.15,7.62-3.2l.11,0,.75,1.33c3.81,6.78,9.58,17,11.54,22.16.76,2-1.87,10-3.29,14.35-.67,2-1.33,4.08-1.93,6.07-3.91,13-8.62,27.32-14.39,43.92-11,31.7-24.14,63.54-36.86,94.34l-8.89,21.58,7.86,11a79.1,79.1,0,0,0,8.6,9.81c1.09,1.1,2.2,2.18,3.19,3.35a95.54,95.54,0,0,1,21.12,79,94.07,94.07,0,0,1-46.65,65.7,96.5,96.5,0,0,1-19.53,8.23c-1.93-2.4-3.82-4.89-5.63-7.58-4.15-6.17-6.65-13.72-8.11-21.15,37-27.44.44-93.36-46.58-65.34-30.64,18.26-19.31,59.47,6.85,71.08A108.52,108.52,0,0,0,220.11,434a96.71,96.71,0,0,1-28.9-11,94.61,94.61,0,0,1-47.74-81.14"/></g></g></svg>