<svg xmlns="http://www.w3.org/2000/svg" viewBox="0 0 81.75 104.7"><defs><style>.cls-1{fill:#4dd0c9;}</style></defs><g id="Camada_2" data-name="Camada 2"><g id="Camada_1-2" data-name="Camada 1"><path class="cls-1" d="M81,87.52c-.15-.67-.33-1.35-.55-2a20.46,20.46,0,0,0-13.4-13.84,19.9,19.9,0,0,0-8.26-1.08A14.56,14.56,0,0,0,53.75,72c1.75,1.71,3.38,3.23,4.92,4.58a13.11,13.11,0,0,1,6.53.69,14.46,14.46,0,0,1,9.54,9.79c.13.39.24.77.33,1.15C67.4,87.91,59.63,82.48,46.78,69q-2.13,2.34-4.05,4.39c2.85,3,5.37,5.48,7.67,7.62a68.39,68.39,0,0,0,11.78,9.13,26.45,26.45,0,0,0,13.59,4h0a25.94,25.94,0,0,0,6-.72A29,29,0,0,0,81,87.52Z"/><path class="cls-1" d="M29.72,73.13a13.9,13.9,0,0,0-6.89-2.58,19.81,19.81,0,0,0-8.16,1.08A20.46,20.46,0,0,0,1.27,85.47C1,86.19.86,86.89.7,87.58a29.53,29.53,0,0,0-.7,6,26.08,26.08,0,0,0,5.73.67H6a26.86,26.86,0,0,0,13.78-4.29,58.5,58.5,0,0,0,7.75-5.67,9.77,9.77,0,0,0-2.93-4,5.08,5.08,0,0,0-1-.55,51.62,51.62,0,0,1-6.92,5.07,21.41,21.41,0,0,1-10,3.39c.08-.31.18-.62.28-.94a14.49,14.49,0,0,1,9.59-10c4-1.35,7.2-1.12,9.69.67,2.07,1.5,3.71,4.1,4.86,7.75a47.51,47.51,0,0,1,1.81,14.08v2.38c2.89,1.34,5,2.17,6,2.53V99.79a53.51,53.51,0,0,0-2.08-15.88C35.24,79,32.86,75.39,29.72,73.13Z"/><path class="cls-1" d="M45.92,80.73A29.75,29.75,0,0,0,44.67,84a51.73,51.73,0,0,0-2.16,15.83v4.72c1.18-.45,3.25-1.29,6-2.54h0V99.71A45.94,45.94,0,0,1,50.34,85.8q.12-.37.24-.72c-.7-.62-1.41-1.27-2.14-1.94S46.79,81.58,45.92,80.73Z"/><path class="cls-1" d="M17,67.32l1.32,0V9.53c0-1.37,2.14-3.68,3.41-3.68H46.39V16.08c0,.73.25,2.68,2.57,4.94a7.81,7.81,0,0,0,5,2.48h9.28V35.75h0c0,.19,0,.35,0,.53v4.8a11.08,11.08,0,0,1-2.46,5.67l-.57.78A31.2,31.2,0,0,1,53,53.1a38.26,38.26,0,0,0-9.39,6.49l0,0c-.93.92-1.85,1.89-2.77,2.9-3.14,3.45-6,6.44-8.5,9a19.71,19.71,0,0,1,4,4.48c2.64-2.67,5.58-5.8,9-9.51l.72-.77h0l.17-.22c.76-.81,1.52-1.59,2.28-2.33a33.57,33.57,0,0,1,7.22-4.8,37.67,37.67,0,0,0,9-7l.16-.17L65,51c.15-.23.34-.49.56-.78a16.77,16.77,0,0,0,3.66-9.33l.08,0V39.6c0-.49,0-1,0-1.54V20.57l-.05-.18-.3-1L68.82,19l-.22-.24-4.36-4.62C60,9.6,55.51,4.87,51,.41L50.56,0H50L20.84,0h-.15l-.14,0a10.56,10.56,0,0,0-8.23,9.22V68.59l1.82-.7A8.29,8.29,0,0,1,17,67.32ZM54.14,17.48a4.36,4.36,0,0,1-1.73-1.73V10.53l6.63,7Z"/><rect class="cls-1" x="26.72" y="32.45" width="19.72" height="5.89"/><rect class="cls-1" x="26.72" y="21.98" width="9.86" height="5.89"/></g></g></svg>