<svg xmlns="http://www.w3.org/2000/svg" viewBox="0 0 110.2 26.56"><defs><style>.cls-1{fill:#fff;}</style></defs><g id="Camada_2" data-name="Camada 2"><g id="Layer_1" data-name="Layer 1"><path class="cls-1" d="M20.57,11.72a.39.39,0,0,1-.1-.08,5.6,5.6,0,0,0-1.24-.73,4.92,4.92,0,0,0-1.67-.4,5.38,5.38,0,0,0-2.6.57,5.73,5.73,0,0,0-.86.49,5.25,5.25,0,0,0,1.17.48,4.4,4.4,0,0,1,2.23-.53,4.12,4.12,0,0,1,2.09.73,6.83,6.83,0,0,1-2.77.52,6.39,6.39,0,0,1-3.71-1.25q-.34.38-.72.72a7.55,7.55,0,0,0,1.1.7,7.27,7.27,0,0,0,1.66.63,7.62,7.62,0,0,0,1.66.21H17a7.89,7.89,0,0,0,3-.61l.44-.2a5.34,5.34,0,0,0,.87-.54A6.53,6.53,0,0,0,20.57,11.72Z"/><path class="cls-1" d="M11.05,8a3,3,0,0,0,.69-.88A3.19,3.19,0,0,1,11.5,5.9,3.26,3.26,0,0,1,12,4.14a3.26,3.26,0,0,1-.86,4.41c.2.26.4.53.6.82a3.89,3.89,0,0,0,.53-.46,4.26,4.26,0,0,0,.92-1.35,4.31,4.31,0,0,0,.33-1.66,4.26,4.26,0,0,0-.83-2.53A4.39,4.39,0,0,0,12,2.63a4.39,4.39,0,0,0-.69.74,3.52,3.52,0,0,0-.3.45,4.25,4.25,0,0,0-.39,1,4,4,0,0,0-.15,1.09,4.32,4.32,0,0,0,.34,1.66A4.93,4.93,0,0,0,11.05,8Z"/><path class="cls-1" d="M5.35,7.56A4.26,4.26,0,0,0,7.61,9.82a4.15,4.15,0,0,0,1.66.34,3.69,3.69,0,0,0,.58,0,10.26,10.26,0,0,0-.8-1A3.28,3.28,0,0,1,6.23,7.06a2.86,2.86,0,0,1,.57.07,6.76,6.76,0,0,1,3.71,3.08c.15.22.31.43.47.63a6.93,6.93,0,0,0,.71-.72l-.34-.47A10.17,10.17,0,0,0,9,7.09a5.44,5.44,0,0,0-2.08-1A4.56,4.56,0,0,0,6,6a3.81,3.81,0,0,0-.59.07A2.14,2.14,0,0,0,5,6.22a5.37,5.37,0,0,0,.11.7A4.83,4.83,0,0,0,5.35,7.56Z"/><path class="cls-1" d="M14.76,8.66a5.2,5.2,0,0,1,2.46-1.53,2.77,2.77,0,0,1,.56-.07A3.24,3.24,0,0,1,13.1,8.7a4.13,4.13,0,0,1-.47.55,2.13,2.13,0,0,1-.22.21,4,4,0,0,0,.68.36,4.2,4.2,0,0,0,3.31,0,4.17,4.17,0,0,0,1.36-.91,4.23,4.23,0,0,0,.91-1.35,3.88,3.88,0,0,0,.21-.63A3.39,3.39,0,0,0,19,6.22a2,2,0,0,0-.4-.11A3.79,3.79,0,0,0,18,6a4.7,4.7,0,0,0-.9.08,5.4,5.4,0,0,0-2.07,1,8.67,8.67,0,0,0-1.41,1.33,2.84,2.84,0,0,0,1.14.24Z"/><path class="cls-1" d="M12.4,10a7.4,7.4,0,0,1-1.61,1.57c.26.21.52.43.78.68a8.66,8.66,0,0,0,1.78-1.84l-.45-.17A4.59,4.59,0,0,1,12.4,10Z"/><path class="cls-1" d="M7.21,13.78a7.7,7.7,0,0,0,1.66-.21,7.25,7.25,0,0,0,.87-.27,8.72,8.72,0,0,0-1.05-.73,6.46,6.46,0,0,1-1.5.2,6.78,6.78,0,0,1-2.76-.52,4.08,4.08,0,0,1,2.07-.73c1.45-.07,3,.69,4.48,2.28l.68-.73v0A11.6,11.6,0,0,0,10.48,12a8,8,0,0,0-1.43-.9,5.4,5.4,0,0,0-2.61-.57,5,5,0,0,0-1.67.4,5.77,5.77,0,0,0-1.23.73l-.09.08a5.33,5.33,0,0,0-.75.71,7.34,7.34,0,0,0,.88.54l.44.2a7.86,7.86,0,0,0,3,.61Z"/><path class="cls-1" d="M18.74,17.3A3.47,3.47,0,0,0,16.47,15a3.36,3.36,0,0,0-1.4-.18,2.26,2.26,0,0,0-.86.25c.3.29.57.55.83.77a2.21,2.21,0,0,1,1.11.12,2.47,2.47,0,0,1,1.62,1.66,1.46,1.46,0,0,1,.05.2c-1.3-.06-2.61-1-4.79-3.26l-.69.74c.48.51.91.93,1.3,1.3a12.12,12.12,0,0,0,2,1.55,4.55,4.55,0,0,0,2.3.68h0a4.49,4.49,0,0,0,1-.12,5.21,5.21,0,0,0-.13-1A2.46,2.46,0,0,0,18.74,17.3Z"/><path class="cls-1" d="M24,2.35v8.73A14.63,14.63,0,0,1,23.5,15a14.4,14.4,0,0,1-1.35,3.31,17.19,17.19,0,0,1-4.1,4.79,20.75,20.75,0,0,1-2.17,1.57c-.61.39-1.25.75-1.89,1.08l-.68.32c-.46.22-.81.36-1,.44v-6.8A8.87,8.87,0,0,1,12.67,17a4.48,4.48,0,0,1,.21-.55l.43.41q.18.18.36.33s0,.08,0,.12a7.83,7.83,0,0,0-.32,2.38V25l.25-.12a21.92,21.92,0,0,0,3.88-2.53A14.17,14.17,0,0,0,23,11.08V3A31.18,31.18,0,0,0,12,1.27,31.18,31.18,0,0,0,1,3v8.07A14.19,14.19,0,0,0,6.55,22.34a21.49,21.49,0,0,0,3.84,2.53l.28.14V19.73a8.19,8.19,0,0,0-.3-2.39A2.51,2.51,0,0,0,9.54,16a1.74,1.74,0,0,0-1.64-.11A2.47,2.47,0,0,0,6.27,17.6s0,.11,0,.16a3.66,3.66,0,0,0,1.69-.57,9.85,9.85,0,0,0,1.18-.86.65.65,0,0,1,.16.09,1.59,1.59,0,0,1,.5.67,10,10,0,0,1-1.32,1,4.56,4.56,0,0,1-2.33.73h0a4.82,4.82,0,0,1-1-.11,6,6,0,0,1,.12-1c0-.11.06-.23.1-.35A3.56,3.56,0,0,1,9,14.77a2.37,2.37,0,0,1,1.16.43A3.43,3.43,0,0,1,11.33,17a8.94,8.94,0,0,1,.35,2.7v6.83c-.16-.06-.51-.2-1-.43l-.74-.36c-.63-.33-1.27-.69-1.87-1.08A23.45,23.45,0,0,1,5.9,23.12a17.22,17.22,0,0,1-4.05-4.8A14.56,14.56,0,0,1,.51,15,15,15,0,0,1,0,11.08V2.35l.3-.13A17.3,17.3,0,0,1,2.62,1.4,28.05,28.05,0,0,1,5.4.79C6.41.62,7.47.49,8.56.4S10.84.26,12,.26s2.33,0,3.45.14,2.15.22,3.16.39a28.05,28.05,0,0,1,2.78.61,17.3,17.3,0,0,1,2.32.82Z"/><path class="cls-1" d="M11.24,15.69c.45-.45.95-1,1.52-1.61.21-.23.42-.45.63-.64l-.12-.06c-.27-.15-.53-.3-.79-.47-.15.15-.31.32-.46.49-.54.58-1,1.09-1.45,1.53A3.07,3.07,0,0,1,11.24,15.69Z"/><path class="cls-1" d="M40.61,0C42.76,0,47,.9,47,3.76V5.63H44.16v-1c0-1.23-2-1.8-3.48-1.8-3,0-5.36,2.15-5.36,5.65a5.69,5.69,0,0,0,5.46,5.94,7.16,7.16,0,0,0,5.08-2.23l1.63,2.23a9.32,9.32,0,0,1-6.76,2.88A8.45,8.45,0,0,1,32.1,8.53,8.34,8.34,0,0,1,40.61,0"/><path class="cls-1" d="M55.22,2.91H53.68V.28h7.69a5.15,5.15,0,0,1,5.34,5.46,5.21,5.21,0,0,1-5.34,5.54h-3v5.79h-3.1ZM60.8,8.63a2.6,2.6,0,0,0,2.74-2.89,2.56,2.56,0,0,0-2.69-2.83H58.32V8.63Z"/><path class="cls-1" d="M72.17,14.44h.73a.48.48,0,0,0,.52-.52L74.51.28h3.21l3.46,8c.4,1,.82,2.25.82,2.25h0s.43-1.28.83-2.25l3.45-8h3.21l1.09,13.64a.48.48,0,0,0,.52.52h.73v2.63H89.21c-1.11,0-1.49-.48-1.58-1.61L87.06,8a24.84,24.84,0,0,1,0-2.6H87S86.49,7,86.07,8l-2.79,6.19H80.77L78,8c-.42-1-.92-2.62-.92-2.62h0A23.59,23.59,0,0,1,77,8l-.54,7.47c-.1,1.13-.5,1.61-1.61,1.61H72.17Z"/><path class="cls-1" d="M99.38,2.91H97.84V.28H108c1.11,0,1.61.5,1.61,1.61V4.44h-2.81v-1a.47.47,0,0,0-.52-.52h-3.79V7.3h5.44V9.93h-5.44v4a.47.47,0,0,0,.52.52h3.88a.47.47,0,0,0,.52-.52v-1h2.81v2.55c0,1.13-.49,1.61-1.6,1.61H101c-1.14,0-1.61-.48-1.61-1.61Z"/></g></g></svg>