<?xml version="1.0" encoding="UTF-8"?>
<svg id="grafismo" xmlns="http://www.w3.org/2000/svg" viewBox="0 0 96.85 41.63">
  <defs>
    <style>
      .cls-1 {
        fill: #007cc4;
      }

      .cls-2 {
        fill: #fff;
      }
    </style>
  </defs>
  <g>
    <path class="cls-1" d="M18,10.26s-.06-.05-.09-.07c-.34-.26-.7-.48-1.08-.64-.47-.2-.96-.32-1.46-.35-.75-.04-1.52.13-2.28.49-.25.12-.51.27-.76.43.35.19.69.32,1.02.42.66-.34,1.31-.5,1.95-.46.63.03,1.25.25,1.83.64-.75.31-1.58.47-2.42.46-.92-.02-2.11-.25-3.25-1.1-.2.22-.41.43-.63.63.31.24.63.44.97.62.46.24.95.42,1.45.55.47.11.96.18,1.45.19h.13c.92,0,1.84-.18,2.66-.53.13-.06.26-.12.38-.18.28-.14.54-.3.77-.47-.14-.16-.36-.39-.65-.62h0Z"/>
    <path class="cls-1" d="M9.67,7.01c.25-.21.46-.47.61-.77-.14-.33-.22-.7-.22-1.09,0-.56.16-1.09.45-1.54.29.45.45.98.45,1.54,0,.96-.47,1.8-1.2,2.32.18.22.35.46.52.72.17-.12.32-.25.47-.4.34-.34.61-.74.8-1.19.19-.46.29-.95.29-1.45,0-.81-.26-1.58-.73-2.21-.17-.24-.38-.45-.61-.65-.23.19-.43.41-.61.65-.09.13-.18.26-.25.39-.15.27-.27.56-.35.86-.08.31-.12.63-.12.95,0,.5.1.99.29,1.45.06.14.12.27.2.4v.02Z"/>
    <path class="cls-1" d="M4.68,6.61c.19.44.46.84.8,1.19.34.35.74.61,1.19.8.46.19.95.29,1.45.29.17,0,.34-.01.51-.03-.23-.32-.47-.6-.7-.86-1.13-.08-2.08-.81-2.47-1.83.16,0,.32.03.49.07,1.1.25,2.23,1.18,3.25,2.7.13.19.26.37.41.55.21-.18.42-.39.63-.63-.1-.13-.2-.27-.3-.42-.65-.96-1.34-1.71-2.06-2.24-.59-.44-1.2-.72-1.82-.84-.26-.05-.53-.08-.79-.07-.18,0-.35.02-.52.06-.15.03-.27.07-.36.1.02.21.05.41.1.61.05.19.11.38.19.56h0Z"/>
    <path class="cls-1" d="M12.91,7.58c.71-.72,1.44-1.18,2.16-1.34.17-.04.33-.06.49-.07-.41,1.07-1.45,1.83-2.66,1.83-.52,0-1.02-.14-1.44-.39-.13.17-.26.33-.42.48-.06.06-.13.12-.19.18.19.12.39.23.59.32.46.19.95.29,1.45.29s.99-.1,1.45-.29c.44-.19.84-.46,1.19-.8s.61-.74.8-1.19c.08-.18.14-.36.18-.55.05-.2.08-.41.1-.62-.09-.03-.21-.07-.36-.1-.17-.03-.34-.05-.52-.06-.26,0-.52.02-.79.07-.61.12-1.22.41-1.82.84-.42.31-.84.7-1.24,1.16.3.14.64.21,1,.21h0l.03.03Z"/>
    <path class="cls-1" d="M10.85,8.77c-.45.59-.92,1.04-1.41,1.38.23.18.46.38.69.59.58-.44,1.1-.98,1.55-1.61-.13-.04-.27-.09-.4-.14-.15-.06-.3-.14-.44-.22h0Z"/>
    <path class="cls-1" d="M6.31,12.06c.49,0,.98-.07,1.45-.19.26-.06.51-.14.76-.24-.31-.25-.61-.47-.92-.63-.47.12-.91.17-1.31.17-.83.02-1.67-.14-2.42-.46.57-.39,1.18-.6,1.81-.64,1.27-.07,2.59.6,3.93,1.99.19-.2.38-.41.59-.64h.01c-.34-.36-.69-.68-1.04-.95-.42-.32-.84-.59-1.26-.79-.76-.37-1.52-.53-2.28-.49-.5.03-.99.14-1.46.35-.37.16-.74.38-1.08.64-.03.02-.06.04-.08.07-.29.23-.51.46-.65.62.23.17.49.33.77.47.13.06.26.12.39.18.83.35,1.74.53,2.66.53h.13,0Z"/>
    <path class="cls-1" d="M16.4,15.14c-.32-1.02-1.01-1.73-1.99-2.05-.43-.14-.85-.2-1.23-.16-.27.03-.52.1-.75.22.26.25.5.48.73.68.28-.05.61-.02.97.1.7.23,1.18.72,1.42,1.45.02.06.04.11.05.17-1.14-.05-2.29-.85-4.2-2.85-.21.23-.41.45-.6.65.42.44.8.81,1.14,1.13.65.61,1.22,1.05,1.75,1.36.69.4,1.34.6,2.02.6h0c.29,0,.58-.04.88-.11,0-.2-.02-.52-.11-.88-.02-.1-.05-.2-.08-.3h0Z"/>
    <path class="cls-1" d="M21.02,2.06v7.64c0,1.19-.15,2.35-.45,3.45-.27,1-.67,1.97-1.19,2.89-.87,1.54-2.07,2.95-3.58,4.2-.59.49-1.23.95-1.9,1.37-.54.34-1.09.66-1.66.94-.21.11-.41.2-.59.29-.4.19-.71.31-.88.38v-5.95c0-.91.11-1.7.32-2.35.06-.17.12-.33.19-.48.13.13.25.24.37.36.11.1.21.2.32.29-.01.03-.02.07-.04.11-.18.56-.28,1.26-.28,2.08v4.59c.07-.03.14-.07.21-.11.85-.43,2.12-1.16,3.39-2.22,3.24-2.68,4.88-5.98,4.88-9.83V2.64c-2.34-.96-5.9-1.53-9.63-1.53S3.22,1.68.88,2.64v7.06c0,3.86,1.63,7.17,4.85,9.85,1.26,1.05,2.52,1.78,3.36,2.21.08.04.17.08.25.12v-4.62c0-.82-.09-1.53-.27-2.09-.17-.54-.41-.93-.72-1.15-.37-.27-.84-.3-1.44-.1-.71.24-1.19.73-1.42,1.48-.01.05-.03.09-.04.14.49-.03.97-.19,1.48-.5.32-.19.65-.43,1.03-.75.05.02.1.05.14.08.16.12.31.32.43.59-.41.35-.79.63-1.15.84-.7.42-1.36.63-2.05.64h-.03c-.28,0-.56-.03-.85-.1,0-.2.02-.52.1-.88.02-.1.05-.21.08-.31.32-1.02,1.01-1.73,1.99-2.05.43-.14.84-.2,1.21-.16.38.04.72.17,1.02.38.47.34.82.87,1.05,1.6.21.65.31,1.44.31,2.36v5.98c-.14-.05-.45-.18-.88-.38-.19-.09-.41-.19-.65-.32-.56-.29-1.11-.6-1.64-.94-.66-.43-1.3-.89-1.88-1.38-1.5-1.25-2.69-2.66-3.55-4.2-.51-.92-.91-1.89-1.18-2.89C.13,12.05-.02,10.89-.02,9.7V2.06l.26-.12c.6-.26,1.28-.5,2.03-.71.75-.21,1.57-.39,2.43-.54.88-.15,1.81-.26,2.77-.34.98-.08,2-.12,3.02-.12s2.04.04,3.02.12c.96.08,1.89.19,2.77.34.87.15,1.69.33,2.43.54.75.21,1.43.45,2.03.71l.26.12h.02Z"/>
    <path class="cls-1" d="M9.84,13.73c.39-.4.83-.86,1.33-1.41.18-.2.36-.39.55-.56-.03-.02-.07-.04-.1-.05-.24-.12-.46-.26-.69-.41-.14.14-.27.28-.41.43-.47.51-.88.96-1.26,1.34.22.18.42.4.59.67h-.01Z"/>
  </g>
  <path class="cls-1" d="M30.01,40.06h-.97l-.19.65h-.78l1.05-3.1h.8l1.05,3.1h-.78l-.19-.65h.01ZM29.53,38.32s-.07.34-.13.53l-.18.6h.61l-.17-.6c-.06-.2-.13-.53-.13-.53h0Z"/>
  <path class="cls-1" d="M31.8,39.75s.35.32.74.32c.16,0,.33-.06.33-.25,0-.37-1.4-.36-1.4-1.31,0-.57.48-.95,1.1-.95.67,0,1,.35,1,.35l-.32.62s-.31-.27-.69-.27c-.16,0-.33.07-.33.24,0,.39,1.4.32,1.4,1.3,0,.52-.39.96-1.09.96s-1.13-.44-1.13-.44l.4-.58h-.01Z"/>
  <path class="cls-1" d="M34.62,39.75s.35.32.74.32c.16,0,.33-.06.33-.25,0-.37-1.4-.36-1.4-1.31,0-.57.48-.95,1.1-.95.67,0,1,.35,1,.35l-.32.62s-.31-.27-.69-.27c-.16,0-.33.07-.33.24,0,.39,1.4.32,1.4,1.3,0,.52-.4.96-1.09.96s-1.13-.44-1.13-.44l.4-.58h-.01Z"/>
  <path class="cls-1" d="M38.69,37.56c.94,0,1.62.69,1.62,1.58s-.69,1.62-1.62,1.62-1.62-.71-1.62-1.62.69-1.58,1.62-1.58M38.69,40.07c.46,0,.84-.4.84-.93s-.37-.89-.84-.89-.84.38-.84.89.37.93.84.93"/>
  <path class="cls-1" d="M42.54,37.56c.77,0,1.16.44,1.16.44l-.35.57s-.35-.32-.78-.32c-.59,0-.88.44-.88.89s.3.93.88.93c.47,0,.82-.38.82-.38l.39.56s-.44.52-1.25.52c-.97,0-1.63-.69-1.63-1.61s.69-1.6,1.63-1.6"/>
  <rect class="cls-1" x="44.56" y="37.61" width=".76" height="3.1"/>
  <path class="cls-1" d="M47.9,40.06h-.97l-.19.65h-.78l1.05-3.1h.8l1.05,3.1h-.78l-.19-.65h0ZM47.42,38.32s-.07.34-.13.53l-.18.6h.61l-.17-.6c-.06-.2-.13-.53-.13-.53h0Z"/>
  <path class="cls-1" d="M50.93,37.56c.77,0,1.16.44,1.16.44l-.35.57s-.35-.32-.78-.32c-.59,0-.88.44-.88.89s.3.93.88.93c.47,0,.82-.38.82-.38l.39.56s-.4.47-1.14.52l-.03.11c.17.02.33.12.33.35,0,.31-.26.41-.51.41-.16,0-.31-.04-.31-.04v-.38s.1.04.2.04.16-.03.16-.1-.09-.09-.18-.09h-.11l.1-.32c-.84-.1-1.39-.75-1.39-1.6,0-.9.69-1.6,1.63-1.6"/>
  <path class="cls-1" d="M54.5,40.06h-.97l-.19.65h-.78l1.05-3.1h.8l1.05,3.1h-.78l-.19-.65h0ZM53.7,36.75c.29,0,.38.26.55.26.1,0,.16-.08.16-.25h.49c0,.44-.18.66-.56.66-.29,0-.38-.26-.55-.26-.1,0-.16.08-.16.25h-.49c0-.44.18-.66.56-.66M54.01,38.32s-.07.34-.13.53l-.18.6h.61l-.17-.6c-.06-.2-.13-.53-.13-.53h0Z"/>
  <path class="cls-1" d="M57.52,37.56c.94,0,1.62.69,1.62,1.58s-.69,1.62-1.62,1.62-1.62-.71-1.62-1.62.69-1.58,1.62-1.58M57.52,40.07c.46,0,.84-.4.84-.93s-.37-.89-.84-.89-.84.38-.84.89.37.93.84.93"/>
  <path class="cls-1" d="M61.26,37.61h1.29c.6,0,1.01.44,1.01,1.07s-.41,1.08-1.01,1.08h-.53v.96h-.76v-3.1h0ZM62.39,39.11c.26,0,.39-.18.39-.43s-.13-.42-.38-.42h-.39v.84h.38Z"/>
  <path class="cls-1" d="M64.27,37.61h.76v1.96c0,.33.21.5.54.5s.54-.17.54-.5v-1.96h.76v1.96c0,.7-.51,1.19-1.29,1.19s-1.3-.49-1.3-1.19v-1.96h-.01ZM65.61,36.76h.74l-.51.65h-.58s.35-.65.35-.65Z"/>
  <path class="cls-1" d="M67.85,37.61h1.14c.62,0,1.05.28,1.05.81,0,.26-.13.53-.36.66h0c.36.12.49.43.49.71,0,.68-.56.92-1.18.92h-1.14v-3.1ZM69,38.81c.19,0,.27-.14.27-.29s-.08-.26-.29-.26h-.38v.55h.4ZM69.07,40.06c.22,0,.33-.15.33-.33s-.1-.32-.33-.32h-.46v.64h.46Z"/>
  <polygon class="cls-1" points="71.02 37.61 71.78 37.61 71.78 40.06 73.04 40.06 73.04 40.72 71.02 40.72 71.02 37.61"/>
  <rect class="cls-1" x="73.76" y="37.61" width=".76" height="3.1"/>
  <path class="cls-1" d="M76.97,37.56c.77,0,1.16.44,1.16.44l-.35.57s-.35-.32-.78-.32c-.59,0-.88.44-.88.89s.3.93.88.93c.47,0,.82-.38.82-.38l.39.56s-.44.52-1.25.52c-.97,0-1.63-.69-1.63-1.61s.69-1.6,1.63-1.6"/>
  <path class="cls-1" d="M80.54,40.06h-.97l-.19.65h-.78l1.05-3.1h.8l1.05,3.1h-.78l-.19-.65h0ZM80.05,38.32s-.07.34-.13.53l-.18.6h.61l-.17-.6c-.06-.2-.13-.53-.13-.53h0Z"/>
  <path class="cls-2" d="M35.54,0c1.88,0,5.56.79,5.56,3.29v1.63h-2.46v-.83c0-1.08-1.76-1.57-3.04-1.57-2.63,0-4.7,1.88-4.7,4.94,0,2.88,2.11,5.19,4.78,5.19s4.45-1.94,4.45-1.94l1.43,1.94s-2.13,2.52-5.92,2.52c-4.49,0-7.55-3.37-7.55-7.72S31.28-.02,35.54-.02"/>
  <path class="cls-2" d="M48.33,2.54h-1.34V.25h6.72c2.75,0,4.68,1.92,4.68,4.78s-1.92,4.84-4.68,4.84h-2.67v5.07h-2.71V2.54ZM53.21,7.55c1.53,0,2.4-.99,2.4-2.52s-.87-2.48-2.36-2.48h-2.21v5.01h2.17Z"/>
  <path class="cls-2" d="M63.16,12.64h.64c.29,0,.43-.17.46-.45l.95-11.94h2.81l3.02,6.99c.35.85.72,1.97.72,1.97h.04s.37-1.12.72-1.97l3.02-6.99h2.81l.95,11.94c.02.29.17.45.46.45h.64v2.3h-2.34c-.97,0-1.3-.41-1.39-1.41l-.5-6.54c-.08-.97-.02-2.28-.02-2.28h-.04s-.43,1.45-.81,2.28l-2.44,5.42h-2.19l-2.44-5.42c-.37-.83-.81-2.3-.81-2.3h-.04s.06,1.32-.02,2.3l-.48,6.54c-.08.99-.43,1.41-1.41,1.41h-2.34v-2.3h.03Z"/>
  <path class="cls-2" d="M86.97,2.54h-1.34V.25h8.88c.97,0,1.41.43,1.41,1.41v2.23h-2.46v-.89c0-.29-.17-.46-.46-.46h-3.31v3.85h4.76v2.3h-4.76v3.5c0,.29.17.45.46.45h3.39c.29,0,.46-.17.46-.45v-.89h2.46v2.23c0,.99-.43,1.41-1.41,1.41h-6.66c-.99,0-1.41-.41-1.41-1.41V2.54h0Z"/>
  <path class="cls-2" d="M30.39,19.5c.95,0,1.43.51,1.43.51l-.21.29s-.46-.44-1.21-.44c-.93,0-1.6.72-1.6,1.66s.67,1.72,1.61,1.72c.8,0,1.29-.53,1.29-.53l.23.28s-.54.61-1.52.61c-1.17,0-2.01-.92-2.01-2.08s.86-2.03,1.99-2.03"/>
  <path class="cls-2" d="M34.2,21.78h.16v-.07c0-.55-.3-.73-.71-.73-.47,0-.8.27-.8.27l-.18-.29s.37-.32,1.01-.32c.68,0,1.06.38,1.06,1.09v1.82h-.37v-.31c0-.14,0-.24,0-.24h0s-.24.61-.95.61c-.47,0-.96-.28-.96-.84,0-.96,1.25-.98,1.74-.98M33.49,23.27c.54,0,.87-.56.87-1.05v-.12h-.16c-.45,0-1.34.02-1.34.64,0,.27.21.54.63.54"/>
  <path class="cls-2" d="M35.65,19.57h.4v.48h-.4v-.48ZM35.66,20.69h.38v2.84h-.38v-2.84Z"/>
  <path class="cls-2" d="M37.92,22.31s-.04.08-.1.16l-.69,1.07h-.45l1-1.48-.91-1.36h.45l.61.95c.05.07.1.16.1.16h0s.05-.09.1-.16l.61-.95h.45l-.91,1.36,1,1.48h-.45l-.69-1.07c-.05-.07-.1-.16-.1-.16h-.02Z"/>
  <path class="cls-2" d="M41.32,21.78h.16v-.07c0-.55-.3-.73-.71-.73-.47,0-.8.27-.8.27l-.18-.29s.37-.32,1.01-.32c.68,0,1.06.38,1.06,1.09v1.82h-.37v-.31c0-.14,0-.24,0-.24h0s-.24.61-.95.61c-.47,0-.96-.28-.96-.84,0-.96,1.25-.98,1.74-.98M40.61,23.27c.54,0,.87-.56.87-1.05v-.12h-.16c-.45,0-1.34.02-1.34.64,0,.27.21.54.63.54"/>
  <path class="cls-2" d="M45.42,20.63c.69,0,.93.54.93.54h0s0-.1,0-.21v-1.38h.38v3.97h-.37v-.3c0-.12,0-.2,0-.2h0s-.23.57-.98.57-1.24-.61-1.24-1.49.53-1.48,1.28-1.48M45.44,23.26c.47,0,.92-.34.92-1.15,0-.58-.29-1.14-.9-1.14-.5,0-.91.42-.91,1.14s.37,1.15.9,1.15"/>
  <path class="cls-2" d="M48.89,20.63c.78,0,1.18.6,1.18,1.31,0,.07,0,.2,0,.2h-2.18c.02.73.51,1.12,1.1,1.12.52,0,.86-.34.86-.34l.18.29s-.41.39-1.05.39c-.85,0-1.48-.61-1.48-1.48,0-.93.63-1.49,1.4-1.49M49.68,21.82c-.02-.59-.38-.87-.81-.87-.47,0-.89.3-.98.87h1.79Z"/>
  <path class="cls-2" d="M52.5,19.57h1.37c.71,0,1.22.46,1.22,1.2s-.51,1.21-1.22,1.21h-.98v1.56h-.39v-3.97ZM53.82,21.62c.53,0,.87-.32.87-.86s-.34-.85-.87-.85h-.94v1.71h.94Z"/>
  <path class="cls-2" d="M55.8,20.69h.38v.5c0,.12,0,.23,0,.23h0c.14-.43.45-.76.9-.76.08,0,.15.02.15.02v.38s-.07-.01-.14-.01c-.4,0-.7.32-.82.73-.06.18-.08.37-.08.55v1.2h-.38v-2.84h-.01Z"/>
  <path class="cls-2" d="M59.01,20.63c.78,0,1.18.6,1.18,1.31,0,.07,0,.2,0,.2h-2.18c.02.73.51,1.12,1.1,1.12.52,0,.86-.34.86-.34l.17.29s-.41.39-1.05.39c-.85,0-1.48-.61-1.48-1.48,0-.93.63-1.49,1.4-1.49M59.8,21.82c-.02-.59-.38-.87-.81-.87-.47,0-.89.3-.98.87h1.79Z"/>
  <path class="cls-2" d="M60.57,20.69h.41l.79,2.08c.05.14.1.34.1.34h0s.05-.19.1-.34l.78-2.08h.4l-1.08,2.84h-.42s-1.09-2.84-1.09-2.84Z"/>
  <path class="cls-2" d="M63.72,19.57h.4v.48h-.4v-.48ZM63.73,20.69h.38v2.84h-.38v-2.84Z"/>
  <path class="cls-2" d="M66.16,20.63c.69,0,.93.54.93.54h.01s-.01-.1-.01-.21v-1.38h.38v3.97h-.37v-.3c0-.12.01-.2.01-.2h-.01s-.23.57-.98.57-1.24-.61-1.24-1.49.53-1.48,1.27-1.48M66.18,23.26c.47,0,.92-.34.92-1.15,0-.58-.29-1.14-.9-1.14-.5,0-.91.42-.91,1.14s.37,1.15.9,1.15"/>
  <path class="cls-2" d="M69.63,20.63c.78,0,1.18.6,1.18,1.31,0,.07-.01.2-.01.2h-2.18c.02.73.51,1.12,1.1,1.12.52,0,.86-.34.86-.34l.17.29s-.41.39-1.05.39c-.85,0-1.48-.61-1.48-1.48,0-.93.63-1.49,1.4-1.49M70.43,21.82c-.02-.59-.38-.87-.81-.87-.47,0-.89.3-.98.87h1.79ZM69.42,19.57h.42l.47.67h-.37l-.3-.46h-.01l-.3.46h-.37l.47-.67h0Z"/>
  <path class="cls-2" d="M71.58,20.69h.38v.42c0,.12-.01.23-.01.23h.01c.1-.26.46-.72,1.13-.72s.95.4.95,1.1v1.81h-.38v-1.7c0-.45-.07-.84-.61-.84-.49,0-.9.33-1.03.8-.03.12-.05.25-.05.38v1.36h-.38v-2.84h0Z"/>
  <path class="cls-2" d="M76.26,20.63c.69,0,1.04.41,1.04.41l-.2.29s-.32-.34-.83-.34c-.62,0-1.11.46-1.11,1.14s.49,1.14,1.12,1.14c.58,0,.91-.4.91-.4l.17.3s-.38.45-1.11.45c-.84,0-1.49-.6-1.49-1.48s.65-1.49,1.49-1.49"/>
  <path class="cls-2" d="M78.08,19.57h.4v.48h-.4v-.48ZM78.09,20.69h.38v2.84h-.38v-2.84Z"/>
  <path class="cls-2" d="M80.94,21.78h.16v-.07c0-.55-.3-.73-.71-.73-.47,0-.8.27-.8.27l-.18-.29s.37-.32,1.01-.32c.68,0,1.06.38,1.06,1.09v1.82h-.37v-.31c0-.14.01-.24.01-.24h-.01s-.24.61-.95.61c-.47,0-.96-.28-.96-.84,0-.96,1.25-.98,1.74-.98M80.23,23.27c.54,0,.87-.56.87-1.05v-.12h-.16c-.45,0-1.34.02-1.34.64,0,.27.21.54.63.54"/>
  <path class="cls-2" d="M29.64,27.4c.69,0,.93.54.93.54h.01s-.01-.1-.01-.21v-1.38h.38v3.97h-.37v-.3c0-.12.01-.2.01-.2h-.01s-.23.57-.98.57-1.24-.61-1.24-1.49.53-1.48,1.27-1.48M29.66,30.03c.47,0,.92-.34.92-1.15,0-.58-.29-1.14-.9-1.14-.5,0-.91.42-.91,1.14s.37,1.15.9,1.15"/>
  <path class="cls-2" d="M33.2,27.4c.83,0,1.5.63,1.5,1.47s-.67,1.5-1.5,1.5-1.5-.64-1.5-1.5.67-1.47,1.5-1.47M33.2,30.03c.61,0,1.11-.5,1.11-1.16s-.5-1.12-1.11-1.12-1.11.48-1.11,1.12.5,1.16,1.11,1.16"/>
  <path class="cls-2" d="M37.31,26.34h.41l1.04,2.33c.09.2.19.49.19.49h0s.11-.28.2-.49l1.04-2.33h.4l.32,3.97h-.39l-.22-2.78c-.02-.21,0-.55,0-.55h0s-.12.35-.21.55l-.93,2.04h-.37l-.93-2.04c-.09-.2-.21-.56-.21-.56h0s0,.35,0,.56l-.22,2.78h-.39l.32-3.97h-.02Z"/>
  <path class="cls-2" d="M41.85,26.34h.4v.48h-.4v-.48ZM41.86,27.46h.38v2.84h-.38v-2.84Z"/>
  <path class="cls-2" d="M43.2,27.46h.38v.42c0,.12,0,.23,0,.23h0c.1-.26.46-.72,1.13-.72s.95.4.95,1.1v1.81h-.38v-1.7c0-.45-.07-.84-.62-.84-.49,0-.9.33-1.03.8-.03.12-.05.25-.05.38v1.36h-.38s0-2.84,0-2.84Z"/>
  <path class="cls-2" d="M46.57,26.34h.4v.48h-.4v-.48ZM46.58,27.46h.38v2.84h-.38v-2.84Z"/>
  <path class="cls-2" d="M47.9,29.68s.32.34.85.34c.3,0,.57-.15.57-.45,0-.62-1.53-.47-1.53-1.39,0-.51.46-.78.97-.78.6,0,.87.31.87.31l-.18.29s-.24-.26-.71-.26c-.29,0-.56.12-.56.44,0,.63,1.53.46,1.53,1.39,0,.46-.4.8-.97.8-.69,0-1.05-.41-1.05-.41,0,0,.21-.28.21-.28Z"/>
  <path class="cls-2" d="M50.56,27.82h-.37v-.32h.38v-.82h.38v.82h.71v.32h-.71v1.41c0,.67.42.75.64.75.08,0,.13-.01.13-.01v.34s-.06.01-.16.01c-.33,0-.99-.11-.99-1.05v-1.45h-.01Z"/>
  <path class="cls-2" d="M53.58,27.4c.78,0,1.18.6,1.18,1.31,0,.07,0,.2,0,.2h-2.18c.02.73.51,1.12,1.1,1.12.52,0,.86-.34.86-.34l.17.29s-.41.39-1.05.39c-.85,0-1.48-.61-1.48-1.48,0-.93.63-1.49,1.4-1.49M54.38,28.59c-.02-.59-.38-.87-.81-.87-.47,0-.89.3-.98.87h1.79ZM53.79,26.34h.45l-.49.67h-.35l.39-.67Z"/>
  <path class="cls-2" d="M55.53,27.46h.38v.5c0,.12,0,.23,0,.23h0c.14-.43.45-.76.9-.76.08,0,.15.02.15.02v.38s-.07-.01-.14-.01c-.4,0-.7.32-.82.73-.06.18-.08.37-.08.55v1.2h-.38v-2.84h-.01Z"/>
  <path class="cls-2" d="M57.57,26.34h.4v.48h-.4v-.48ZM57.58,27.46h.38v2.84h-.38v-2.84Z"/>
  <path class="cls-2" d="M60.21,27.4c.83,0,1.5.63,1.5,1.47s-.67,1.5-1.5,1.5-1.5-.64-1.5-1.5.67-1.47,1.5-1.47M60.21,30.03c.61,0,1.11-.5,1.11-1.16s-.5-1.12-1.11-1.12-1.11.48-1.11,1.12.5,1.16,1.11,1.16"/>
  <path class="cls-2" d="M65.1,27.4c.69,0,.93.54.93.54h.01s-.01-.1-.01-.21v-1.38h.38v3.97h-.37v-.3c0-.12.01-.2.01-.2h-.01s-.23.57-.98.57-1.24-.61-1.24-1.49.53-1.48,1.27-1.48M65.12,30.03c.47,0,.92-.34.92-1.15,0-.58-.29-1.14-.9-1.14-.5,0-.91.42-.91,1.14s.37,1.15.9,1.15"/>
  <path class="cls-2" d="M68.88,28.55h.16v-.07c0-.55-.3-.73-.71-.73-.47,0-.8.27-.8.27l-.18-.29s.37-.32,1.01-.32c.68,0,1.06.38,1.06,1.09v1.82h-.37v-.31c0-.14.01-.24.01-.24h-.01s-.24.62-.95.62c-.47,0-.96-.28-.96-.84,0-.96,1.25-.98,1.74-.98M68.17,30.04c.54,0,.87-.56.87-1.05v-.12h-.16c-.45,0-1.34.02-1.34.64,0,.27.21.54.63.54"/>
  <polygon class="cls-2" points="72 26.34 74.24 26.34 74.24 26.69 72.39 26.69 72.39 28.13 73.9 28.13 73.9 28.48 72.39 28.48 72.39 29.95 74.34 29.95 74.34 30.3 72 30.3 72 26.34"/>
  <path class="cls-2" d="M76.23,27.4c.69,0,.93.54.93.54h.01s-.01-.1-.01-.21v-1.38h.38v3.97h-.37v-.3c0-.12.01-.2.01-.2h-.01s-.23.57-.98.57-1.24-.61-1.24-1.49.53-1.48,1.27-1.48M76.25,30.03c.47,0,.92-.34.92-1.15,0-.58-.29-1.14-.9-1.14-.5,0-.91.42-.91,1.14s.37,1.15.9,1.15"/>
  <path class="cls-2" d="M78.46,27.46h.38v1.7c0,.45.07.84.61.84.65,0,1.05-.57,1.05-1.18v-1.36h.38v2.84h-.37v-.42c0-.12.01-.23.01-.23h-.01c-.11.28-.49.72-1.11.72-.67,0-.95-.36-.95-1.1v-1.81h.01Z"/>
  <path class="cls-2" d="M83.14,27.4c.69,0,1.04.41,1.04.41l-.2.29s-.32-.34-.83-.34c-.62,0-1.11.46-1.11,1.14s.49,1.14,1.12,1.14c.58,0,.91-.4.91-.4l.17.3s-.38.45-1.11.45c-.84,0-1.49-.6-1.49-1.48s.65-1.49,1.49-1.49"/>
  <path class="cls-2" d="M86.49,28.55h.16v-.07c0-.55-.3-.73-.71-.73-.47,0-.8.27-.8.27l-.18-.29s.37-.32,1.01-.32c.68,0,1.06.38,1.06,1.09v1.82h-.37v-.31c0-.14.01-.24.01-.24h-.01s-.24.62-.95.62c-.47,0-.96-.28-.96-.84,0-.96,1.25-.98,1.74-.98M85.78,30.04c.54,0,.87-.56.87-1.05v-.12h-.16c-.45,0-1.34.02-1.34.64,0,.27.21.54.63.54"/>
  <path class="cls-2" d="M89.25,27.4c.69,0,1.04.41,1.04.41l-.2.29s-.32-.34-.83-.34c-.62,0-1.11.46-1.11,1.14s.49,1.14,1.12,1.14c.58,0,.91-.4.91-.4l.17.3s-.37.42-1.05.45l-.05.24c.23.03.39.17.39.4,0,.33-.27.45-.54.45-.17,0-.28-.03-.28-.03v-.27s.11.03.24.03c.15,0,.29-.04.29-.19,0-.12-.12-.19-.32-.19h-.08l.11-.46c-.74-.08-1.29-.66-1.29-1.47,0-.87.65-1.49,1.49-1.49"/>
  <path class="cls-2" d="M92.59,28.55h.16v-.07c0-.55-.3-.73-.71-.73-.47,0-.8.27-.8.27l-.18-.29s.37-.32,1.01-.32c.68,0,1.06.38,1.06,1.09v1.82h-.37v-.31c0-.14.01-.24.01-.24h-.01s-.24.62-.95.62c-.47,0-.96-.28-.96-.84,0-.96,1.25-.98,1.74-.98M91.73,26.33c.38,0,.46.41.71.41.19,0,.23-.24.23-.39h.3c0,.43-.17.66-.52.66-.38,0-.46-.4-.71-.4-.19,0-.22.24-.22.38h-.31c0-.43.17-.66.52-.66M91.88,30.04c.54,0,.87-.56.87-1.05v-.12h-.16c-.45,0-1.34.02-1.34.64,0,.27.21.54.63.54"/>
  <path class="cls-2" d="M95.35,27.4c.83,0,1.5.63,1.5,1.47s-.67,1.5-1.5,1.5-1.5-.64-1.5-1.5.67-1.47,1.5-1.47M95.35,30.03c.61,0,1.11-.5,1.11-1.16s-.5-1.12-1.11-1.12-1.11.48-1.11,1.12.5,1.16,1.11,1.16"/>
</svg>