<svg xmlns="http://www.w3.org/2000/svg" viewBox="0 0 728.53 499.4"><defs><style>.cls-1{fill:#007cc4;}.cls-2,.cls-7{fill:#231f20;}.cls-3{fill:none;stroke:#007cc4;stroke-miterlimit:10;stroke-width:8px;}.cls-4,.cls-7{font-size:25px;font-family:Montserrat-Medium, Montserrat;font-weight:500;}.cls-4,.cls-6{fill:#fff;}.cls-5{letter-spacing:-0.02em;}.cls-8{letter-spacing:0em;}.cls-9{letter-spacing:0em;}.cls-10{letter-spacing:0em;}.cls-11{letter-spacing:-0.02em;}.cls-12{letter-spacing:0em;}.cls-13{letter-spacing:-0.02em;}.cls-14{fill:#ccc;}</style></defs><g id="Camada_2" data-name="Camada 2"><g id="Layer_1" data-name="Layer 1"><path class="cls-1" d="M301.06,478.16V499.4c-3.08-1.16-15.92-7-25.2-11.31-4.17-1.94-8.87-4.21-14-6.83-12-6.15-23.93-13-35.38-20.32a405.19,405.19,0,0,1-40.62-29.65c-32.25-26.85-58-57.29-76.46-90.46a274.54,274.54,0,0,1-25.35-62.3,286.58,286.58,0,0,1-9.61-74.33V39.44l5.69-2.51a328.27,328.27,0,0,1,43.73-15.36A517.35,517.35,0,0,1,176.37,10c18.95-3.22,39-5.7,59.63-7.37C257.19.87,279.08,0,301.07,0S345,.87,366.13,2.59C386.74,4.26,406.8,6.74,425.76,10a520.14,520.14,0,0,1,52.5,11.6A330.2,330.2,0,0,1,522,36.92l5.68,2.51V204.2A283.32,283.32,0,0,1,518,278.55a273,273,0,0,1-25.6,62.31c-18.68,33.18-44.67,63.61-77.25,90.46a406.88,406.88,0,0,1-41,29.64c-11.57,7.33-23.59,14.17-35.74,20.32-4.59,2.33-8.84,4.38-12.69,6.16-8.68,4-20.84,10.52-24.61,12V478.16l24.61-11.85c1.49-.74,3-1.5,4.6-2.31a404.71,404.71,0,0,0,73.19-47.78c69.77-57.69,105.15-129,105.15-212V52C458.25,31.3,381.37,19.07,301.07,19.07S143.87,31.31,93.52,52V204.2c0,83.21,35.18,154.68,104.55,212.43a400.36,400.36,0,0,0,72.49,47.66c1.83.94,3.6,1.82,5.3,2.66Z"/><path class="cls-2" d="M61.05,131.86S5.47,125.4,5.31,147.53l1.08,27.15s-12.94,24.68,18.71,27,249.68,3,249.68,3,35.64,0,35.62-24.72l-.64-40.86A45.8,45.8,0,0,0,274.81,129C253.53,131.63,61.05,131.86,61.05,131.86Z"/><rect class="cls-3" x="4.89" y="129" width="304.87" height="76.46" rx="18.79"/><text class="cls-4" transform="translate(40.28 176.72)"><tspan class="cls-5">C</tspan><tspan x="17.4" y="0">uidados de Saúde</tspan></text><path class="cls-6" d="M456.2,183.25a203.76,203.76,0,0,1-25.31-1.05c-21.9-2.28-69-1.83-69.53,18.36l2.22,62.35s9.21,8.43,38.57,7c33.48-1.58,264.19.78,264.19.78s58.76,5.52,58.19-16.68V200.56s-3.42-23.46-57.59-19.79C647.85,182.07,502.76,182.25,456.2,183.25Z"/><rect class="cls-3" x="361.36" y="181.76" width="363.17" height="91.08" rx="18.79"/><text class="cls-7" transform="translate(461.55 220.46)"><tspan class="cls-8">A<tspan class="cls-9" x="18.18" y="0">quisição de</tspan></tspan><tspan x="-70.94" y="27.32">equi</tspan><tspan class="cls-10" x="-14.69" y="27.32">p</tspan><tspan class="cls-9" x="2.24" y="27.32">amen</tspan><tspan class="cls-11" x="75.94" y="27.32">t</tspan><tspan class="cls-12" x="85.84" y="27.32">o educati</tspan><tspan class="cls-13" x="204.26" y="27.32">v</tspan><tspan class="cls-12" x="217.86" y="27.32">o</tspan></text><path class="cls-14" d="M59.68,295.59S8.47,280.18,8.61,302.32L2.05,338.5s-9,25.54,22.67,27.4,249.68-.51,249.68-.51,35.69,2.31,34.47-16.36l4.44-38.48s-10-20.13-31.28-17.2S59.68,295.59,59.68,295.59Z"/><rect class="cls-3" x="4" y="291.37" width="304.87" height="76.46" rx="18.79"/><text class="cls-7" transform="translate(54.38 338.5) rotate(-0.62)">Bolsas de estudo</text></g></g></svg>