<svg xmlns="http://www.w3.org/2000/svg" viewBox="0 0 89.14 116"><defs><style>.cls-1{fill:#0090bd;}</style></defs><g id="Camada_2" data-name="Camada 2"><g id="Camada_1-2" data-name="Camada 1"><path class="cls-1" d="M88.36,97.29c-.16-.73-.36-1.47-.6-2.24A22.26,22.26,0,0,0,73.17,80a21.53,21.53,0,0,0-9-1.17,15.71,15.71,0,0,0-5.52,1.59c1.91,1.86,3.69,3.52,5.36,5a14.22,14.22,0,0,1,7.11.75A15.75,15.75,0,0,1,81.51,96.82c.14.42.26.83.36,1.24-5.94-.24-11.94-3.32-19.94-10.33l0,0-5.23-4.91-.13-.12c-.35-.29-.68-.58-1-.88a1.21,1.21,0,0,1-.16-.16h0a24.39,24.39,0,0,1-7.12-13.47,69.77,69.77,0,0,1-.71-8.27v-5a28.32,28.32,0,0,1,10.93,3c.38.19,1.44.89,2.38,1.5,3,2,3.53,2.28,4.17,2.29h0c1.49,0,2.77-1.39,4-2.74.37-.39.75-.8,1-1A11.69,11.69,0,0,1,78,55a24.16,24.16,0,0,1,4.68.53,7.69,7.69,0,0,1,.84.25,8.13,8.13,0,0,0,2.5.54,2.82,2.82,0,0,0,2.84-2.08c.5-1.62-.14-6.49-.35-8A47.06,47.06,0,0,0,74.42,19,42.79,42.79,0,0,0,47.59,7.05c0-.17,0-.34,0-.51.11-2,.23-4.37-1-5.69A2.8,2.8,0,0,0,44.55,0h-.22a3.2,3.2,0,0,0-2.82,2.9,16.18,16.18,0,0,0-.07,3.55l0,.59A42.85,42.85,0,0,0,15.31,18.36,46.66,46.66,0,0,0,.85,44.5,54.37,54.37,0,0,0,0,51.57c0,1.46,0,3.08,1,4a2.52,2.52,0,0,0,1.87.75,7.93,7.93,0,0,0,2.07-.4c.47-.13.95-.27,1.46-.37a24.68,24.68,0,0,1,4.7-.53,11.86,11.86,0,0,1,8.1,3.05c.21.18.54.54.87.89,1.13,1.23,2.42,2.62,3.89,2.62h.36l.28-.13a24.62,24.62,0,0,0,3.19-1.94,23.38,23.38,0,0,1,2.62-1.63,28.31,28.31,0,0,1,10.53-3c.05,2.9.26,10.86,1,14.53A30.94,30.94,0,0,0,52,87.38c1,1,2,2,3,2.85.73.68,1.44,1.32,2.15,2l.33.3h0a66.89,66.89,0,0,0,10.34,7.71,28.83,28.83,0,0,0,14.8,4.39h0a28.35,28.35,0,0,0,6.49-.79A31.37,31.37,0,0,0,88.36,97.29ZM56.57,15.12a38.2,38.2,0,0,1,16.95,12,40,40,0,0,1,9,22.15,25.83,25.83,0,0,0-4.46-.4,17.52,17.52,0,0,0-9.25,2.41h0l0,0-.59.4a88.92,88.92,0,0,0-3.32-20.39A45.79,45.79,0,0,0,56.57,15.12ZM44.51,48.48A37.91,37.91,0,0,0,28.39,52c-.47.22-.91.47-1.34.72,1-15.1,4.14-32.35,17.46-39.37a20.38,20.38,0,0,1,5.89,4.11c4,4,7.05,9.91,9,17.49A96.38,96.38,0,0,1,62,52.81L58.9,51.26l0,0-.05,0A38.32,38.32,0,0,0,44.51,48.48Zm-12-33.36c-8.76,10.66-11,25.25-11.64,36.54l-.59-.39,0,0h0A17.48,17.48,0,0,0,11,48.83a25.75,25.75,0,0,0-4.46.4,39.72,39.72,0,0,1,9-22.15A38.24,38.24,0,0,1,32.5,15.12Z"/><path class="cls-1" d="M32.49,81.62A15.13,15.13,0,0,0,25,78.81,21.57,21.57,0,0,0,16.09,80,22.24,22.24,0,0,0,1.51,95.05c-.25.79-.45,1.56-.62,2.3a31.52,31.52,0,0,0-.77,6.49,27.71,27.71,0,0,0,6.24.73h.25c5,0,9.88-1.58,15-4.66a63.73,63.73,0,0,0,8.43-6.18,10.58,10.58,0,0,0-3.18-4.31,5.48,5.48,0,0,0-1.05-.6,57.24,57.24,0,0,1-7.54,5.52A23.51,23.51,0,0,1,7.4,98c.09-.34.19-.69.3-1A15.76,15.76,0,0,1,18.15,86.15c4.38-1.46,7.83-1.22,10.54.73,2.26,1.63,4.05,4.47,5.3,8.43a52.07,52.07,0,0,1,2,15.34v2.59c3.16,1.47,5.44,2.37,6.49,2.76v-5.35a58,58,0,0,0-2.27-17.29C38.49,88,35.91,84.08,32.49,81.62Z"/><path class="cls-1" d="M50.13,89.9a32.87,32.87,0,0,0-1.37,3.51,56.64,56.64,0,0,0-2.34,17.24v5.15c1.28-.5,3.53-1.41,6.49-2.78v-2.37a49.83,49.83,0,0,1,2-15.23c.08-.27.17-.53.26-.79-.76-.67-1.54-1.38-2.33-2.11S51.07,90.82,50.13,89.9Z"/></g></g></svg>